M48
; DRILL file {KiCad (5.1.6)-1} date 07/08/20 23:31:14
; FORMAT={-:-/ absolute / inch / decimal}
; #@! TF.CreationDate,2020-07-08T23:31:14-03:00
; #@! TF.GenerationSoftware,Kicad,Pcbnew,(5.1.6)-1
; #@! TF.FileFunction,Plated,1,2,PTH
FMAT,2
INCH
T1C0.0120
T2C0.0315
T3C0.0362
T4C0.0394
T5C0.0512
T6C0.0598
T7C0.0906
T8C0.0917
%
G90
G05
T1
X4.25Y-3.787
X4.251Y-3.278
X4.364Y-3.5637
X4.397Y-2.75
X4.4881Y-3.12
X4.4883Y-3.2789
X4.6462Y-3.4894
X4.7093Y-3.1176
X4.7094Y-3.2789
X4.775Y-4.742
X4.7894Y-3.5627
X4.7899Y-3.6899
X4.837Y-3.44
X4.9232Y-3.2789
X4.9329Y-3.1176
X5.0945Y-3.9701
X5.1448Y-3.2789
X5.2014Y-2.7898
X5.2248Y-2.8148
X5.2483Y-2.8395
X5.2717Y-2.8646
X5.2734Y-2.7187
X5.2989Y-2.741
X5.3076Y-3.2842
X5.3244Y-2.7627
X5.3499Y-2.7856
X5.3869Y-4.2352
X5.4232Y-3.1874
X5.4302Y-3.435
X5.4338Y-3.2768
X5.435Y-3.6375
X5.462Y-3.514
X5.462Y-3.549
X5.491Y-3.2765
X5.5034Y-3.1874
X5.5466Y-3.566
X5.5886Y-1.8536
X5.5952Y-2.2901
X5.6007Y-3.5129
X5.6073Y-3.4544
X5.6497Y-3.7689
X5.6594Y-1.776
X5.6594Y-3.682
X5.6874Y-3.5298
X5.7388Y-3.6971
X5.7667Y-3.3175
X5.7706Y-3.7275
X5.7779Y-3.5452
X5.7998Y-3.4055
X5.8169Y-3.3161
X5.8702Y-3.6098
X5.8839Y-4.4177
X5.9406Y-3.87
X5.9601Y-3.5135
X5.9887Y-3.4823
X5.9952Y-3.9032
X6.0132Y-3.4589
X6.0398Y-3.3428
X6.0452Y-3.4327
X6.059Y-3.524
X6.1272Y-3.9249
X6.2022Y-3.9728
X6.3564Y-3.8332
X6.3658Y-3.5577
X6.5682Y-3.5324
X6.68Y-3.3832
X6.7082Y-3.8763
X6.7327Y-3.6055
X7.1275Y-3.202
X7.1275Y-3.2803
X7.3259Y-2.9821
X7.3259Y-3.0821
X7.326Y-2.8821
X7.327Y-2.4821
X7.327Y-2.5821
X7.327Y-2.6821
X7.327Y-2.7821
T2
X5.0828Y-3.5691
X5.0828Y-3.7612
X3.8681Y-3.176
X3.9681Y-3.176
X4.0681Y-3.176
T3
X4.0433Y-3.6156
X4.0433Y-3.714
X4.122Y-3.6156
X4.122Y-3.714
X6.4482Y-2.1496
X6.5466Y-2.1496
X6.6254Y-2.1496
X6.7238Y-2.1496
T4
X6.2096Y-4.7521
X6.2096Y-4.9293
X6.4656Y-4.7521
X6.4656Y-4.9293
X7.578Y-2.4821
X7.578Y-2.5821
X7.578Y-2.6821
X7.578Y-2.7821
X7.578Y-2.8821
X7.578Y-2.9821
X7.578Y-3.0821
X7.578Y-3.1821
X4.4528Y-1.6752
X4.5528Y-1.6752
X4.6528Y-1.6752
X4.7528Y-1.6752
X4.8528Y-1.6752
X4.9528Y-1.6752
X5.0528Y-1.6752
X5.1528Y-1.6752
X5.2528Y-1.6752
X5.3528Y-1.6752
X5.4528Y-1.6752
X5.5528Y-1.6752
X5.6528Y-1.6752
X5.7528Y-1.6752
X5.8528Y-1.6752
X5.9528Y-1.6752
X7.578Y-3.4323
X7.578Y-3.5323
X7.578Y-3.6323
X7.578Y-3.7323
X6.7822Y-4.949
X6.7822Y-5.1262
X7.0381Y-4.949
X7.0381Y-5.1262
X3.858Y-1.9821
X3.858Y-2.238
X4.0352Y-1.9821
X4.0352Y-2.238
X3.8406Y-4.123
X3.8406Y-4.223
X7.4768Y-4.4724
X7.4768Y-4.5724
X7.4768Y-4.6724
X7.4768Y-4.7724
X7.5768Y-4.4724
X7.5768Y-4.5724
X7.5768Y-4.6724
X7.5768Y-4.7724
X3.8406Y-4.403
X3.9406Y-4.403
X5.7766Y-4.5553
X5.7766Y-4.7325
X6.0325Y-4.5553
X6.0325Y-4.7325
X5.3435Y-4.7521
X5.3435Y-4.9293
X5.5994Y-4.7521
X5.5994Y-4.9293
X5.7766Y-4.949
X5.7766Y-5.1262
X6.0325Y-4.949
X6.0325Y-5.1262
X3.8406Y-2.4439
X3.8406Y-2.5439
X3.8406Y-2.6439
X3.8406Y-2.7439
X3.8406Y-2.8439
X3.8406Y-2.9439
T5
X6.7143Y-4.749
X6.9111Y-4.749
X7.108Y-4.749
T6
X7.4882Y-1.9965
X7.4882Y-2.1965
X7.4902Y-4.0191
X7.4902Y-4.2191
T7
X6.3273Y-2.0429
X6.8447Y-2.0429
T8
X3.9366Y-3.4278
X3.9366Y-3.9018
T4
G00X3.9615Y-4.6675
M15
G01X3.9615Y-4.7462
M16
G05
G00X4.0402Y-4.8919
M15
G01X4.119Y-4.8919
M16
G05
G00X4.1977Y-4.6675
M15
G01X4.1977Y-4.7462
M16
G05
T0
M30
