G04 #@! TF.GenerationSoftware,KiCad,Pcbnew,(5.1.6)-1*
G04 #@! TF.CreationDate,2020-07-08T23:31:11-03:00*
G04 #@! TF.ProjectId,Projeto GTA,50726f6a-6574-46f2-9047-54412e6b6963,1.0*
G04 #@! TF.SameCoordinates,Original*
G04 #@! TF.FileFunction,Soldermask,Top*
G04 #@! TF.FilePolarity,Negative*
%FSLAX46Y46*%
G04 Gerber Fmt 4.6, Leading zero omitted, Abs format (unit mm)*
G04 Created by KiCad (PCBNEW (5.1.6)-1) date 2020-07-08 23:31:11*
%MOMM*%
%LPD*%
G01*
G04 APERTURE LIST*
%ADD10C,2.100000*%
%ADD11C,3.716000*%
%ADD12C,1.828000*%
%ADD13R,1.828000X1.828000*%
%ADD14O,2.100000X2.100000*%
%ADD15R,2.100000X2.100000*%
%ADD16R,1.950000X1.000000*%
%ADD17C,3.900000*%
%ADD18R,4.200000X2.400000*%
%ADD19R,1.900000X2.400000*%
%ADD20R,3.400000X3.400000*%
%ADD21C,3.400000*%
%ADD22R,0.700000X1.900000*%
%ADD23R,1.900000X0.700000*%
%ADD24R,3.900000X3.900000*%
%ADD25R,2.350000X1.000000*%
%ADD26R,1.300000X1.600000*%
%ADD27C,1.840000*%
%ADD28C,2.740000*%
%ADD29C,1.900000*%
G04 APERTURE END LIST*
D10*
X102493200Y-56845200D03*
X97993200Y-56845200D03*
X102493200Y-50345200D03*
X97993200Y-50345200D03*
X172268200Y-130204600D03*
X172268200Y-125704600D03*
X178768200Y-130204600D03*
X178768200Y-125704600D03*
X157725000Y-125204600D03*
X157725000Y-120704600D03*
X164225000Y-125204600D03*
X164225000Y-120704600D03*
X146725000Y-130204600D03*
X146725000Y-125704600D03*
X153225000Y-130204600D03*
X153225000Y-125704600D03*
X146725000Y-120204600D03*
X146725000Y-115704600D03*
X153225000Y-120204600D03*
X153225000Y-115704600D03*
X135725000Y-125204600D03*
X135725000Y-120704600D03*
X142225000Y-125204600D03*
X142225000Y-120704600D03*
D11*
X160714520Y-51889840D03*
X173854520Y-51889840D03*
D12*
X163784520Y-54599840D03*
X166284520Y-54599840D03*
X168284520Y-54599840D03*
D13*
X170784520Y-54599840D03*
D14*
X192481200Y-63045000D03*
X192481200Y-65585000D03*
X192481200Y-68125000D03*
X192481200Y-70665000D03*
X192481200Y-73205000D03*
X192481200Y-75745000D03*
X192481200Y-78285000D03*
D15*
X192481200Y-80825000D03*
D16*
X172843200Y-81336666D03*
X172843200Y-82606666D03*
X172843200Y-83876666D03*
X172843200Y-85146666D03*
X178243200Y-85146666D03*
X178243200Y-83876666D03*
X178243200Y-82606666D03*
X178243200Y-81336666D03*
G36*
G01*
X165075000Y-100518750D02*
X165075000Y-101631250D01*
G75*
G02*
X164731250Y-101975000I-343750J0D01*
G01*
X164043750Y-101975000D01*
G75*
G02*
X163700000Y-101631250I0J343750D01*
G01*
X163700000Y-100518750D01*
G75*
G02*
X164043750Y-100175000I343750J0D01*
G01*
X164731250Y-100175000D01*
G75*
G02*
X165075000Y-100518750I0J-343750D01*
G01*
G37*
G36*
G01*
X163200000Y-100518750D02*
X163200000Y-101631250D01*
G75*
G02*
X162856250Y-101975000I-343750J0D01*
G01*
X162168750Y-101975000D01*
G75*
G02*
X161825000Y-101631250I0J343750D01*
G01*
X161825000Y-100518750D01*
G75*
G02*
X162168750Y-100175000I343750J0D01*
G01*
X162856250Y-100175000D01*
G75*
G02*
X163200000Y-100518750I0J-343750D01*
G01*
G37*
D14*
X100090000Y-111836200D03*
D15*
X97550000Y-111836200D03*
X97550000Y-104724200D03*
D14*
X97550000Y-107264200D03*
D15*
X192481200Y-94800000D03*
D14*
X192481200Y-92260000D03*
X192481200Y-89720000D03*
X192481200Y-87180000D03*
D15*
X192450000Y-113600000D03*
D14*
X189910000Y-113600000D03*
X192450000Y-116140000D03*
X189910000Y-116140000D03*
X192450000Y-118680000D03*
X189910000Y-118680000D03*
X192450000Y-121220000D03*
X189910000Y-121220000D03*
D15*
X104698800Y-94335600D03*
D10*
X104698800Y-91835600D03*
X102698800Y-91835600D03*
X102698800Y-94335600D03*
D17*
X99988800Y-99105600D03*
X99988800Y-87065600D03*
G36*
G01*
X127443000Y-78395300D02*
X127443000Y-79885300D01*
G75*
G02*
X127113000Y-80215300I-330000J0D01*
G01*
X126123000Y-80215300D01*
G75*
G02*
X125793000Y-79885300I0J330000D01*
G01*
X125793000Y-78395300D01*
G75*
G02*
X126123000Y-78065300I330000J0D01*
G01*
X127113000Y-78065300D01*
G75*
G02*
X127443000Y-78395300I0J-330000D01*
G01*
G37*
G36*
G01*
X130243000Y-78395300D02*
X130243000Y-79885300D01*
G75*
G02*
X129913000Y-80215300I-330000J0D01*
G01*
X128923000Y-80215300D01*
G75*
G02*
X128593000Y-79885300I0J330000D01*
G01*
X128593000Y-78395300D01*
G75*
G02*
X128923000Y-78065300I330000J0D01*
G01*
X129913000Y-78065300D01*
G75*
G02*
X130243000Y-78395300I0J-330000D01*
G01*
G37*
G36*
G01*
X113400800Y-78395300D02*
X113400800Y-79885300D01*
G75*
G02*
X113070800Y-80215300I-330000J0D01*
G01*
X112080800Y-80215300D01*
G75*
G02*
X111750800Y-79885300I0J330000D01*
G01*
X111750800Y-78395300D01*
G75*
G02*
X112080800Y-78065300I330000J0D01*
G01*
X113070800Y-78065300D01*
G75*
G02*
X113400800Y-78395300I0J-330000D01*
G01*
G37*
G36*
G01*
X110600800Y-78395300D02*
X110600800Y-79885300D01*
G75*
G02*
X110270800Y-80215300I-330000J0D01*
G01*
X109280800Y-80215300D01*
G75*
G02*
X108950800Y-79885300I0J330000D01*
G01*
X108950800Y-78395300D01*
G75*
G02*
X109280800Y-78065300I330000J0D01*
G01*
X110270800Y-78065300D01*
G75*
G02*
X110600800Y-78395300I0J-330000D01*
G01*
G37*
G36*
G01*
X116214866Y-78395300D02*
X116214866Y-79885300D01*
G75*
G02*
X115884866Y-80215300I-330000J0D01*
G01*
X114894866Y-80215300D01*
G75*
G02*
X114564866Y-79885300I0J330000D01*
G01*
X114564866Y-78395300D01*
G75*
G02*
X114894866Y-78065300I330000J0D01*
G01*
X115884866Y-78065300D01*
G75*
G02*
X116214866Y-78395300I0J-330000D01*
G01*
G37*
G36*
G01*
X119014866Y-78395300D02*
X119014866Y-79885300D01*
G75*
G02*
X118684866Y-80215300I-330000J0D01*
G01*
X117694866Y-80215300D01*
G75*
G02*
X117364866Y-79885300I0J330000D01*
G01*
X117364866Y-78395300D01*
G75*
G02*
X117694866Y-78065300I330000J0D01*
G01*
X118684866Y-78065300D01*
G75*
G02*
X119014866Y-78395300I0J-330000D01*
G01*
G37*
G36*
G01*
X124628932Y-78395300D02*
X124628932Y-79885300D01*
G75*
G02*
X124298932Y-80215300I-330000J0D01*
G01*
X123308932Y-80215300D01*
G75*
G02*
X122978932Y-79885300I0J330000D01*
G01*
X122978932Y-78395300D01*
G75*
G02*
X123308932Y-78065300I330000J0D01*
G01*
X124298932Y-78065300D01*
G75*
G02*
X124628932Y-78395300I0J-330000D01*
G01*
G37*
G36*
G01*
X121828932Y-78395300D02*
X121828932Y-79885300D01*
G75*
G02*
X121498932Y-80215300I-330000J0D01*
G01*
X120508932Y-80215300D01*
G75*
G02*
X120178932Y-79885300I0J330000D01*
G01*
X120178932Y-78395300D01*
G75*
G02*
X120508932Y-78065300I330000J0D01*
G01*
X121498932Y-78065300D01*
G75*
G02*
X121828932Y-78395300I0J-330000D01*
G01*
G37*
D16*
X172843200Y-90753332D03*
X172843200Y-92023332D03*
X172843200Y-93293332D03*
X172843200Y-94563332D03*
X178243200Y-94563332D03*
X178243200Y-93293332D03*
X178243200Y-92023332D03*
X178243200Y-90753332D03*
D18*
X127157192Y-114147200D03*
D19*
X127157192Y-120447200D03*
X129457192Y-120447200D03*
X124857192Y-120447200D03*
G36*
G01*
X100468200Y-48105050D02*
X100468200Y-46992550D01*
G75*
G02*
X100811950Y-46648800I343750J0D01*
G01*
X101499450Y-46648800D01*
G75*
G02*
X101843200Y-46992550I0J-343750D01*
G01*
X101843200Y-48105050D01*
G75*
G02*
X101499450Y-48448800I-343750J0D01*
G01*
X100811950Y-48448800D01*
G75*
G02*
X100468200Y-48105050I0J343750D01*
G01*
G37*
G36*
G01*
X98593200Y-48105050D02*
X98593200Y-46992550D01*
G75*
G02*
X98936950Y-46648800I343750J0D01*
G01*
X99624450Y-46648800D01*
G75*
G02*
X99968200Y-46992550I0J-343750D01*
G01*
X99968200Y-48105050D01*
G75*
G02*
X99624450Y-48448800I-343750J0D01*
G01*
X98936950Y-48448800D01*
G75*
G02*
X98593200Y-48105050I0J343750D01*
G01*
G37*
G36*
G01*
X110336521Y-88265600D02*
X111449021Y-88265600D01*
G75*
G02*
X111792771Y-88609350I0J-343750D01*
G01*
X111792771Y-89296850D01*
G75*
G02*
X111449021Y-89640600I-343750J0D01*
G01*
X110336521Y-89640600D01*
G75*
G02*
X109992771Y-89296850I0J343750D01*
G01*
X109992771Y-88609350D01*
G75*
G02*
X110336521Y-88265600I343750J0D01*
G01*
G37*
G36*
G01*
X110336521Y-86390600D02*
X111449021Y-86390600D01*
G75*
G02*
X111792771Y-86734350I0J-343750D01*
G01*
X111792771Y-87421850D01*
G75*
G02*
X111449021Y-87765600I-343750J0D01*
G01*
X110336521Y-87765600D01*
G75*
G02*
X109992771Y-87421850I0J343750D01*
G01*
X109992771Y-86734350D01*
G75*
G02*
X110336521Y-86390600I343750J0D01*
G01*
G37*
D20*
X190250000Y-102085000D03*
D21*
X190250000Y-107165000D03*
G36*
G01*
X164225000Y-79475000D02*
X164225000Y-80965000D01*
G75*
G02*
X163895000Y-81295000I-330000J0D01*
G01*
X162905000Y-81295000D01*
G75*
G02*
X162575000Y-80965000I0J330000D01*
G01*
X162575000Y-79475000D01*
G75*
G02*
X162905000Y-79145000I330000J0D01*
G01*
X163895000Y-79145000D01*
G75*
G02*
X164225000Y-79475000I0J-330000D01*
G01*
G37*
G36*
G01*
X161425000Y-79475000D02*
X161425000Y-80965000D01*
G75*
G02*
X161095000Y-81295000I-330000J0D01*
G01*
X160105000Y-81295000D01*
G75*
G02*
X159775000Y-80965000I0J330000D01*
G01*
X159775000Y-79475000D01*
G75*
G02*
X160105000Y-79145000I330000J0D01*
G01*
X161095000Y-79145000D01*
G75*
G02*
X161425000Y-79475000I0J-330000D01*
G01*
G37*
G36*
G01*
X153746800Y-80591650D02*
X153746800Y-79479150D01*
G75*
G02*
X154090550Y-79135400I343750J0D01*
G01*
X154778050Y-79135400D01*
G75*
G02*
X155121800Y-79479150I0J-343750D01*
G01*
X155121800Y-80591650D01*
G75*
G02*
X154778050Y-80935400I-343750J0D01*
G01*
X154090550Y-80935400D01*
G75*
G02*
X153746800Y-80591650I0J343750D01*
G01*
G37*
G36*
G01*
X155621800Y-80591650D02*
X155621800Y-79479150D01*
G75*
G02*
X155965550Y-79135400I343750J0D01*
G01*
X156653050Y-79135400D01*
G75*
G02*
X156996800Y-79479150I0J-343750D01*
G01*
X156996800Y-80591650D01*
G75*
G02*
X156653050Y-80935400I-343750J0D01*
G01*
X155965550Y-80935400D01*
G75*
G02*
X155621800Y-80591650I0J343750D01*
G01*
G37*
D22*
X147750000Y-82800000D03*
X147250000Y-82800000D03*
X146750000Y-82800000D03*
X146250000Y-82800000D03*
X145750000Y-82800000D03*
X145250000Y-82800000D03*
X144750000Y-82800000D03*
X144250000Y-82800000D03*
X143750000Y-82800000D03*
X143250000Y-82800000D03*
X142750000Y-82800000D03*
X142250000Y-82800000D03*
D23*
X140800000Y-84250000D03*
X140800000Y-84750000D03*
X140800000Y-85250000D03*
X140800000Y-85750000D03*
X140800000Y-86250000D03*
X140800000Y-86750000D03*
X140800000Y-87250000D03*
X140800000Y-87750000D03*
X140800000Y-88250000D03*
X140800000Y-88750000D03*
X140800000Y-89250000D03*
X140800000Y-89750000D03*
D22*
X142250000Y-91200000D03*
X142750000Y-91200000D03*
X143250000Y-91200000D03*
X143750000Y-91200000D03*
X144250000Y-91200000D03*
X144750000Y-91200000D03*
X145250000Y-91200000D03*
X145750000Y-91200000D03*
X146250000Y-91200000D03*
X146750000Y-91200000D03*
X147250000Y-91200000D03*
X147750000Y-91200000D03*
D23*
X149200000Y-89750000D03*
X149200000Y-89250000D03*
X149200000Y-88750000D03*
X149200000Y-88250000D03*
X149200000Y-87750000D03*
X149200000Y-87250000D03*
X149200000Y-86750000D03*
X149200000Y-86250000D03*
X149200000Y-85750000D03*
X149200000Y-85250000D03*
X149200000Y-84750000D03*
X149200000Y-84250000D03*
D24*
X145000000Y-87000000D03*
D25*
X124791200Y-98800600D03*
X124791200Y-97530600D03*
X124791200Y-96260600D03*
X124791200Y-94990600D03*
X124791200Y-93720600D03*
X124791200Y-92450600D03*
X124791200Y-91180600D03*
X124791200Y-89910600D03*
X124791200Y-88640600D03*
X124791200Y-87370600D03*
X115391200Y-87370600D03*
X115391200Y-88640600D03*
X115391200Y-89910600D03*
X115391200Y-91180600D03*
X115391200Y-92450600D03*
X115391200Y-93720600D03*
X115391200Y-94990600D03*
X115391200Y-96260600D03*
X115391200Y-97530600D03*
X115391200Y-98800600D03*
D26*
X109963220Y-111968280D03*
X106663220Y-111968280D03*
D27*
X98250000Y-80670300D03*
X100790000Y-80670300D03*
X103330000Y-80670300D03*
D15*
X97550000Y-62075000D03*
D14*
X97550000Y-64615000D03*
X97550000Y-67155000D03*
X97550000Y-69695000D03*
X97550000Y-72235000D03*
X97550000Y-74775000D03*
D21*
X190200000Y-55790000D03*
D20*
X190200000Y-50710000D03*
D28*
X170543200Y-120625000D03*
X175543200Y-120625000D03*
X180543200Y-120625000D03*
D19*
X118389386Y-113410600D03*
X113789386Y-113410600D03*
X116089386Y-113410600D03*
D18*
X116089386Y-119710600D03*
G36*
G01*
X110336521Y-96530599D02*
X111449021Y-96530599D01*
G75*
G02*
X111792771Y-96874349I0J-343750D01*
G01*
X111792771Y-97561849D01*
G75*
G02*
X111449021Y-97905599I-343750J0D01*
G01*
X110336521Y-97905599D01*
G75*
G02*
X109992771Y-97561849I0J343750D01*
G01*
X109992771Y-96874349D01*
G75*
G02*
X110336521Y-96530599I343750J0D01*
G01*
G37*
G36*
G01*
X110336521Y-98405601D02*
X111449021Y-98405601D01*
G75*
G02*
X111792771Y-98749351I0J-343750D01*
G01*
X111792771Y-99436851D01*
G75*
G02*
X111449021Y-99780601I-343750J0D01*
G01*
X110336521Y-99780601D01*
G75*
G02*
X109992771Y-99436851I0J343750D01*
G01*
X109992771Y-98749351D01*
G75*
G02*
X110336521Y-98405601I343750J0D01*
G01*
G37*
G36*
G01*
X147864157Y-78583861D02*
X147077501Y-79370517D01*
G75*
G02*
X146591365Y-79370517I-243068J243068D01*
G01*
X146105229Y-78884381D01*
G75*
G02*
X146105229Y-78398245I243068J243068D01*
G01*
X146891885Y-77611589D01*
G75*
G02*
X147378021Y-77611589I243068J-243068D01*
G01*
X147864157Y-78097725D01*
G75*
G02*
X147864157Y-78583861I-243068J-243068D01*
G01*
G37*
G36*
G01*
X146538331Y-77258035D02*
X145751675Y-78044691D01*
G75*
G02*
X145265539Y-78044691I-243068J243068D01*
G01*
X144779403Y-77558555D01*
G75*
G02*
X144779403Y-77072419I243068J243068D01*
G01*
X145566059Y-76285763D01*
G75*
G02*
X146052195Y-76285763I243068J-243068D01*
G01*
X146538331Y-76771899D01*
G75*
G02*
X146538331Y-77258035I-243068J-243068D01*
G01*
G37*
G36*
G01*
X155813770Y-85715680D02*
X156926270Y-85715680D01*
G75*
G02*
X157270020Y-86059430I0J-343750D01*
G01*
X157270020Y-86746930D01*
G75*
G02*
X156926270Y-87090680I-343750J0D01*
G01*
X155813770Y-87090680D01*
G75*
G02*
X155470020Y-86746930I0J343750D01*
G01*
X155470020Y-86059430D01*
G75*
G02*
X155813770Y-85715680I343750J0D01*
G01*
G37*
G36*
G01*
X155813770Y-83840680D02*
X156926270Y-83840680D01*
G75*
G02*
X157270020Y-84184430I0J-343750D01*
G01*
X157270020Y-84871930D01*
G75*
G02*
X156926270Y-85215680I-343750J0D01*
G01*
X155813770Y-85215680D01*
G75*
G02*
X155470020Y-84871930I0J343750D01*
G01*
X155470020Y-84184430D01*
G75*
G02*
X155813770Y-83840680I343750J0D01*
G01*
G37*
G36*
G01*
X148376040Y-95770710D02*
X148376040Y-96883210D01*
G75*
G02*
X148032290Y-97226960I-343750J0D01*
G01*
X147344790Y-97226960D01*
G75*
G02*
X147001040Y-96883210I0J343750D01*
G01*
X147001040Y-95770710D01*
G75*
G02*
X147344790Y-95426960I343750J0D01*
G01*
X148032290Y-95426960D01*
G75*
G02*
X148376040Y-95770710I0J-343750D01*
G01*
G37*
G36*
G01*
X146501040Y-95770710D02*
X146501040Y-96883210D01*
G75*
G02*
X146157290Y-97226960I-343750J0D01*
G01*
X145469790Y-97226960D01*
G75*
G02*
X145126040Y-96883210I0J343750D01*
G01*
X145126040Y-95770710D01*
G75*
G02*
X145469790Y-95426960I343750J0D01*
G01*
X146157290Y-95426960D01*
G75*
G02*
X146501040Y-95770710I0J-343750D01*
G01*
G37*
G36*
G01*
X136945180Y-85918030D02*
X136945180Y-84805530D01*
G75*
G02*
X137288930Y-84461780I343750J0D01*
G01*
X137976430Y-84461780D01*
G75*
G02*
X138320180Y-84805530I0J-343750D01*
G01*
X138320180Y-85918030D01*
G75*
G02*
X137976430Y-86261780I-343750J0D01*
G01*
X137288930Y-86261780D01*
G75*
G02*
X136945180Y-85918030I0J343750D01*
G01*
G37*
G36*
G01*
X135070180Y-85918030D02*
X135070180Y-84805530D01*
G75*
G02*
X135413930Y-84461780I343750J0D01*
G01*
X136101430Y-84461780D01*
G75*
G02*
X136445180Y-84805530I0J-343750D01*
G01*
X136445180Y-85918030D01*
G75*
G02*
X136101430Y-86261780I-343750J0D01*
G01*
X135413930Y-86261780D01*
G75*
G02*
X135070180Y-85918030I0J343750D01*
G01*
G37*
G36*
G01*
X173918200Y-98000810D02*
X173918200Y-96888310D01*
G75*
G02*
X174261950Y-96544560I343750J0D01*
G01*
X174949450Y-96544560D01*
G75*
G02*
X175293200Y-96888310I0J-343750D01*
G01*
X175293200Y-98000810D01*
G75*
G02*
X174949450Y-98344560I-343750J0D01*
G01*
X174261950Y-98344560D01*
G75*
G02*
X173918200Y-98000810I0J343750D01*
G01*
G37*
G36*
G01*
X175793200Y-98000810D02*
X175793200Y-96888310D01*
G75*
G02*
X176136950Y-96544560I343750J0D01*
G01*
X176824450Y-96544560D01*
G75*
G02*
X177168200Y-96888310I0J-343750D01*
G01*
X177168200Y-98000810D01*
G75*
G02*
X176824450Y-98344560I-343750J0D01*
G01*
X176136950Y-98344560D01*
G75*
G02*
X175793200Y-98000810I0J343750D01*
G01*
G37*
G36*
G01*
X182813200Y-98000810D02*
X182813200Y-96888310D01*
G75*
G02*
X183156950Y-96544560I343750J0D01*
G01*
X183844450Y-96544560D01*
G75*
G02*
X184188200Y-96888310I0J-343750D01*
G01*
X184188200Y-98000810D01*
G75*
G02*
X183844450Y-98344560I-343750J0D01*
G01*
X183156950Y-98344560D01*
G75*
G02*
X182813200Y-98000810I0J343750D01*
G01*
G37*
G36*
G01*
X180938200Y-98000810D02*
X180938200Y-96888310D01*
G75*
G02*
X181281950Y-96544560I343750J0D01*
G01*
X181969450Y-96544560D01*
G75*
G02*
X182313200Y-96888310I0J-343750D01*
G01*
X182313200Y-98000810D01*
G75*
G02*
X181969450Y-98344560I-343750J0D01*
G01*
X181281950Y-98344560D01*
G75*
G02*
X180938200Y-98000810I0J343750D01*
G01*
G37*
G36*
G01*
X133753850Y-99080600D02*
X132641350Y-99080600D01*
G75*
G02*
X132297600Y-98736850I0J343750D01*
G01*
X132297600Y-98049350D01*
G75*
G02*
X132641350Y-97705600I343750J0D01*
G01*
X133753850Y-97705600D01*
G75*
G02*
X134097600Y-98049350I0J-343750D01*
G01*
X134097600Y-98736850D01*
G75*
G02*
X133753850Y-99080600I-343750J0D01*
G01*
G37*
G36*
G01*
X133753850Y-97205600D02*
X132641350Y-97205600D01*
G75*
G02*
X132297600Y-96861850I0J343750D01*
G01*
X132297600Y-96174350D01*
G75*
G02*
X132641350Y-95830600I343750J0D01*
G01*
X133753850Y-95830600D01*
G75*
G02*
X134097600Y-96174350I0J-343750D01*
G01*
X134097600Y-96861850D01*
G75*
G02*
X133753850Y-97205600I-343750J0D01*
G01*
G37*
G36*
G01*
X111449021Y-92835600D02*
X110336521Y-92835600D01*
G75*
G02*
X109992771Y-92491850I0J343750D01*
G01*
X109992771Y-91804350D01*
G75*
G02*
X110336521Y-91460600I343750J0D01*
G01*
X111449021Y-91460600D01*
G75*
G02*
X111792771Y-91804350I0J-343750D01*
G01*
X111792771Y-92491850D01*
G75*
G02*
X111449021Y-92835600I-343750J0D01*
G01*
G37*
G36*
G01*
X111449021Y-94710600D02*
X110336521Y-94710600D01*
G75*
G02*
X109992771Y-94366850I0J343750D01*
G01*
X109992771Y-93679350D01*
G75*
G02*
X110336521Y-93335600I343750J0D01*
G01*
X111449021Y-93335600D01*
G75*
G02*
X111792771Y-93679350I0J-343750D01*
G01*
X111792771Y-94366850D01*
G75*
G02*
X111449021Y-94710600I-343750J0D01*
G01*
G37*
G36*
G01*
X133753850Y-90340600D02*
X132641350Y-90340600D01*
G75*
G02*
X132297600Y-89996850I0J343750D01*
G01*
X132297600Y-89309350D01*
G75*
G02*
X132641350Y-88965600I343750J0D01*
G01*
X133753850Y-88965600D01*
G75*
G02*
X134097600Y-89309350I0J-343750D01*
G01*
X134097600Y-89996850D01*
G75*
G02*
X133753850Y-90340600I-343750J0D01*
G01*
G37*
G36*
G01*
X133753850Y-88465600D02*
X132641350Y-88465600D01*
G75*
G02*
X132297600Y-88121850I0J343750D01*
G01*
X132297600Y-87434350D01*
G75*
G02*
X132641350Y-87090600I343750J0D01*
G01*
X133753850Y-87090600D01*
G75*
G02*
X134097600Y-87434350I0J-343750D01*
G01*
X134097600Y-88121850D01*
G75*
G02*
X133753850Y-88465600I-343750J0D01*
G01*
G37*
G36*
G01*
X119250000Y-125910850D02*
X119250000Y-124798350D01*
G75*
G02*
X119593750Y-124454600I343750J0D01*
G01*
X120281250Y-124454600D01*
G75*
G02*
X120625000Y-124798350I0J-343750D01*
G01*
X120625000Y-125910850D01*
G75*
G02*
X120281250Y-126254600I-343750J0D01*
G01*
X119593750Y-126254600D01*
G75*
G02*
X119250000Y-125910850I0J343750D01*
G01*
G37*
G36*
G01*
X117375000Y-125910850D02*
X117375000Y-124798350D01*
G75*
G02*
X117718750Y-124454600I343750J0D01*
G01*
X118406250Y-124454600D01*
G75*
G02*
X118750000Y-124798350I0J-343750D01*
G01*
X118750000Y-125910850D01*
G75*
G02*
X118406250Y-126254600I-343750J0D01*
G01*
X117718750Y-126254600D01*
G75*
G02*
X117375000Y-125910850I0J343750D01*
G01*
G37*
G36*
G01*
X114503800Y-110970050D02*
X114503800Y-109857550D01*
G75*
G02*
X114847550Y-109513800I343750J0D01*
G01*
X115535050Y-109513800D01*
G75*
G02*
X115878800Y-109857550I0J-343750D01*
G01*
X115878800Y-110970050D01*
G75*
G02*
X115535050Y-111313800I-343750J0D01*
G01*
X114847550Y-111313800D01*
G75*
G02*
X114503800Y-110970050I0J343750D01*
G01*
G37*
G36*
G01*
X116378800Y-110970050D02*
X116378800Y-109857550D01*
G75*
G02*
X116722550Y-109513800I343750J0D01*
G01*
X117410050Y-109513800D01*
G75*
G02*
X117753800Y-109857550I0J-343750D01*
G01*
X117753800Y-110970050D01*
G75*
G02*
X117410050Y-111313800I-343750J0D01*
G01*
X116722550Y-111313800D01*
G75*
G02*
X116378800Y-110970050I0J343750D01*
G01*
G37*
G36*
G01*
X112550000Y-124703673D02*
X112550000Y-125805527D01*
G75*
G02*
X112225927Y-126129600I-324073J0D01*
G01*
X111074073Y-126129600D01*
G75*
G02*
X110750000Y-125805527I0J324073D01*
G01*
X110750000Y-124703673D01*
G75*
G02*
X111074073Y-124379600I324073J0D01*
G01*
X112225927Y-124379600D01*
G75*
G02*
X112550000Y-124703673I0J-324073D01*
G01*
G37*
G36*
G01*
X115250000Y-124703673D02*
X115250000Y-125805527D01*
G75*
G02*
X114925927Y-126129600I-324073J0D01*
G01*
X113774073Y-126129600D01*
G75*
G02*
X113450000Y-125805527I0J324073D01*
G01*
X113450000Y-124703673D01*
G75*
G02*
X113774073Y-124379600I324073J0D01*
G01*
X114925927Y-124379600D01*
G75*
G02*
X115250000Y-124703673I0J-324073D01*
G01*
G37*
G36*
G01*
X129707200Y-109786673D02*
X129707200Y-110888527D01*
G75*
G02*
X129383127Y-111212600I-324073J0D01*
G01*
X128231273Y-111212600D01*
G75*
G02*
X127907200Y-110888527I0J324073D01*
G01*
X127907200Y-109786673D01*
G75*
G02*
X128231273Y-109462600I324073J0D01*
G01*
X129383127Y-109462600D01*
G75*
G02*
X129707200Y-109786673I0J-324073D01*
G01*
G37*
G36*
G01*
X127007200Y-109786673D02*
X127007200Y-110888527D01*
G75*
G02*
X126683127Y-111212600I-324073J0D01*
G01*
X125531273Y-111212600D01*
G75*
G02*
X125207200Y-110888527I0J324073D01*
G01*
X125207200Y-109786673D01*
G75*
G02*
X125531273Y-109462600I324073J0D01*
G01*
X126683127Y-109462600D01*
G75*
G02*
X127007200Y-109786673I0J-324073D01*
G01*
G37*
D24*
X106621580Y-119554600D03*
G36*
G01*
X98921580Y-120654600D02*
X98921580Y-118454600D01*
G75*
G02*
X99771580Y-117604600I850000J0D01*
G01*
X101471580Y-117604600D01*
G75*
G02*
X102321580Y-118454600I0J-850000D01*
G01*
X102321580Y-120654600D01*
G75*
G02*
X101471580Y-121504600I-850000J0D01*
G01*
X99771580Y-121504600D01*
G75*
G02*
X98921580Y-120654600I0J850000D01*
G01*
G37*
G36*
G01*
X101671580Y-125229600D02*
X101671580Y-123279600D01*
G75*
G02*
X102646580Y-122304600I975000J0D01*
G01*
X104596580Y-122304600D01*
G75*
G02*
X105571580Y-123279600I0J-975000D01*
G01*
X105571580Y-125229600D01*
G75*
G02*
X104596580Y-126204600I-975000J0D01*
G01*
X102646580Y-126204600D01*
G75*
G02*
X101671580Y-125229600I0J975000D01*
G01*
G37*
D15*
X113100000Y-42550000D03*
D14*
X115640000Y-42550000D03*
X118180000Y-42550000D03*
X120720000Y-42550000D03*
X123260000Y-42550000D03*
X125800000Y-42550000D03*
X128340000Y-42550000D03*
X130880000Y-42550000D03*
X133420000Y-42550000D03*
X135960000Y-42550000D03*
X138500000Y-42550000D03*
X141040000Y-42550000D03*
X143580000Y-42550000D03*
X146120000Y-42550000D03*
X148660000Y-42550000D03*
X151200000Y-42550000D03*
D29*
X129102271Y-95535600D03*
X129102271Y-90655600D03*
D16*
X154602200Y-100920000D03*
X154602200Y-102190000D03*
X154602200Y-103460000D03*
X154602200Y-104730000D03*
X160002200Y-104730000D03*
X160002200Y-103460000D03*
X160002200Y-102190000D03*
X160002200Y-100920000D03*
G36*
G01*
X147555000Y-111556250D02*
X147555000Y-110443750D01*
G75*
G02*
X147898750Y-110100000I343750J0D01*
G01*
X148586250Y-110100000D01*
G75*
G02*
X148930000Y-110443750I0J-343750D01*
G01*
X148930000Y-111556250D01*
G75*
G02*
X148586250Y-111900000I-343750J0D01*
G01*
X147898750Y-111900000D01*
G75*
G02*
X147555000Y-111556250I0J343750D01*
G01*
G37*
G36*
G01*
X145680000Y-111556250D02*
X145680000Y-110443750D01*
G75*
G02*
X146023750Y-110100000I343750J0D01*
G01*
X146711250Y-110100000D01*
G75*
G02*
X147055000Y-110443750I0J-343750D01*
G01*
X147055000Y-111556250D01*
G75*
G02*
X146711250Y-111900000I-343750J0D01*
G01*
X146023750Y-111900000D01*
G75*
G02*
X145680000Y-111556250I0J343750D01*
G01*
G37*
G36*
G01*
X137649999Y-115443750D02*
X137649999Y-116556250D01*
G75*
G02*
X137306249Y-116900000I-343750J0D01*
G01*
X136618749Y-116900000D01*
G75*
G02*
X136274999Y-116556250I0J343750D01*
G01*
X136274999Y-115443750D01*
G75*
G02*
X136618749Y-115100000I343750J0D01*
G01*
X137306249Y-115100000D01*
G75*
G02*
X137649999Y-115443750I0J-343750D01*
G01*
G37*
G36*
G01*
X135774999Y-115443750D02*
X135774999Y-116556250D01*
G75*
G02*
X135431249Y-116900000I-343750J0D01*
G01*
X134743749Y-116900000D01*
G75*
G02*
X134399999Y-116556250I0J343750D01*
G01*
X134399999Y-115443750D01*
G75*
G02*
X134743749Y-115100000I343750J0D01*
G01*
X135431249Y-115100000D01*
G75*
G02*
X135774999Y-115443750I0J-343750D01*
G01*
G37*
G36*
G01*
X141945000Y-130910850D02*
X141945000Y-129798350D01*
G75*
G02*
X142288750Y-129454600I343750J0D01*
G01*
X142976250Y-129454600D01*
G75*
G02*
X143320000Y-129798350I0J-343750D01*
G01*
X143320000Y-130910850D01*
G75*
G02*
X142976250Y-131254600I-343750J0D01*
G01*
X142288750Y-131254600D01*
G75*
G02*
X141945000Y-130910850I0J343750D01*
G01*
G37*
G36*
G01*
X140070000Y-130910850D02*
X140070000Y-129798350D01*
G75*
G02*
X140413750Y-129454600I343750J0D01*
G01*
X141101250Y-129454600D01*
G75*
G02*
X141445000Y-129798350I0J-343750D01*
G01*
X141445000Y-130910850D01*
G75*
G02*
X141101250Y-131254600I-343750J0D01*
G01*
X140413750Y-131254600D01*
G75*
G02*
X140070000Y-130910850I0J343750D01*
G01*
G37*
G36*
G01*
X184625000Y-129798350D02*
X184625000Y-130910850D01*
G75*
G02*
X184281250Y-131254600I-343750J0D01*
G01*
X183593750Y-131254600D01*
G75*
G02*
X183250000Y-130910850I0J343750D01*
G01*
X183250000Y-129798350D01*
G75*
G02*
X183593750Y-129454600I343750J0D01*
G01*
X184281250Y-129454600D01*
G75*
G02*
X184625000Y-129798350I0J-343750D01*
G01*
G37*
G36*
G01*
X182750000Y-129798350D02*
X182750000Y-130910850D01*
G75*
G02*
X182406250Y-131254600I-343750J0D01*
G01*
X181718750Y-131254600D01*
G75*
G02*
X181375000Y-130910850I0J343750D01*
G01*
X181375000Y-129798350D01*
G75*
G02*
X181718750Y-129454600I343750J0D01*
G01*
X182406250Y-129454600D01*
G75*
G02*
X182750000Y-129798350I0J-343750D01*
G01*
G37*
G36*
G01*
X183250000Y-126060850D02*
X183250000Y-124948350D01*
G75*
G02*
X183593750Y-124604600I343750J0D01*
G01*
X184281250Y-124604600D01*
G75*
G02*
X184625000Y-124948350I0J-343750D01*
G01*
X184625000Y-126060850D01*
G75*
G02*
X184281250Y-126404600I-343750J0D01*
G01*
X183593750Y-126404600D01*
G75*
G02*
X183250000Y-126060850I0J343750D01*
G01*
G37*
G36*
G01*
X181375000Y-126060850D02*
X181375000Y-124948350D01*
G75*
G02*
X181718750Y-124604600I343750J0D01*
G01*
X182406250Y-124604600D01*
G75*
G02*
X182750000Y-124948350I0J-343750D01*
G01*
X182750000Y-126060850D01*
G75*
G02*
X182406250Y-126404600I-343750J0D01*
G01*
X181718750Y-126404600D01*
G75*
G02*
X181375000Y-126060850I0J343750D01*
G01*
G37*
G36*
G01*
X159930000Y-115443750D02*
X159930000Y-116556250D01*
G75*
G02*
X159586250Y-116900000I-343750J0D01*
G01*
X158898750Y-116900000D01*
G75*
G02*
X158555000Y-116556250I0J343750D01*
G01*
X158555000Y-115443750D01*
G75*
G02*
X158898750Y-115100000I343750J0D01*
G01*
X159586250Y-115100000D01*
G75*
G02*
X159930000Y-115443750I0J-343750D01*
G01*
G37*
G36*
G01*
X158055000Y-115443750D02*
X158055000Y-116556250D01*
G75*
G02*
X157711250Y-116900000I-343750J0D01*
G01*
X157023750Y-116900000D01*
G75*
G02*
X156680000Y-116556250I0J343750D01*
G01*
X156680000Y-115443750D01*
G75*
G02*
X157023750Y-115100000I343750J0D01*
G01*
X157711250Y-115100000D01*
G75*
G02*
X158055000Y-115443750I0J-343750D01*
G01*
G37*
G36*
G01*
X141445000Y-115443750D02*
X141445000Y-116556250D01*
G75*
G02*
X141101250Y-116900000I-343750J0D01*
G01*
X140413750Y-116900000D01*
G75*
G02*
X140070000Y-116556250I0J343750D01*
G01*
X140070000Y-115443750D01*
G75*
G02*
X140413750Y-115100000I343750J0D01*
G01*
X141101250Y-115100000D01*
G75*
G02*
X141445000Y-115443750I0J-343750D01*
G01*
G37*
G36*
G01*
X143320000Y-115443750D02*
X143320000Y-116556250D01*
G75*
G02*
X142976250Y-116900000I-343750J0D01*
G01*
X142288750Y-116900000D01*
G75*
G02*
X141945000Y-116556250I0J343750D01*
G01*
X141945000Y-115443750D01*
G75*
G02*
X142288750Y-115100000I343750J0D01*
G01*
X142976250Y-115100000D01*
G75*
G02*
X143320000Y-115443750I0J-343750D01*
G01*
G37*
G36*
G01*
X168349450Y-97971666D02*
X167236950Y-97971666D01*
G75*
G02*
X166893200Y-97627916I0J343750D01*
G01*
X166893200Y-96940416D01*
G75*
G02*
X167236950Y-96596666I343750J0D01*
G01*
X168349450Y-96596666D01*
G75*
G02*
X168693200Y-96940416I0J-343750D01*
G01*
X168693200Y-97627916D01*
G75*
G02*
X168349450Y-97971666I-343750J0D01*
G01*
G37*
G36*
G01*
X168349450Y-96096666D02*
X167236950Y-96096666D01*
G75*
G02*
X166893200Y-95752916I0J343750D01*
G01*
X166893200Y-95065416D01*
G75*
G02*
X167236950Y-94721666I343750J0D01*
G01*
X168349450Y-94721666D01*
G75*
G02*
X168693200Y-95065416I0J-343750D01*
G01*
X168693200Y-95752916D01*
G75*
G02*
X168349450Y-96096666I-343750J0D01*
G01*
G37*
G36*
G01*
X157785000Y-129798350D02*
X157785000Y-130910850D01*
G75*
G02*
X157441250Y-131254600I-343750J0D01*
G01*
X156753750Y-131254600D01*
G75*
G02*
X156410000Y-130910850I0J343750D01*
G01*
X156410000Y-129798350D01*
G75*
G02*
X156753750Y-129454600I343750J0D01*
G01*
X157441250Y-129454600D01*
G75*
G02*
X157785000Y-129798350I0J-343750D01*
G01*
G37*
G36*
G01*
X159660000Y-129798350D02*
X159660000Y-130910850D01*
G75*
G02*
X159316250Y-131254600I-343750J0D01*
G01*
X158628750Y-131254600D01*
G75*
G02*
X158285000Y-130910850I0J343750D01*
G01*
X158285000Y-129798350D01*
G75*
G02*
X158628750Y-129454600I343750J0D01*
G01*
X159316250Y-129454600D01*
G75*
G02*
X159660000Y-129798350I0J-343750D01*
G01*
G37*
G36*
G01*
X127788000Y-82704950D02*
X127788000Y-83817450D01*
G75*
G02*
X127444250Y-84161200I-343750J0D01*
G01*
X126756750Y-84161200D01*
G75*
G02*
X126413000Y-83817450I0J343750D01*
G01*
X126413000Y-82704950D01*
G75*
G02*
X126756750Y-82361200I343750J0D01*
G01*
X127444250Y-82361200D01*
G75*
G02*
X127788000Y-82704950I0J-343750D01*
G01*
G37*
G36*
G01*
X129663000Y-82704950D02*
X129663000Y-83817450D01*
G75*
G02*
X129319250Y-84161200I-343750J0D01*
G01*
X128631750Y-84161200D01*
G75*
G02*
X128288000Y-83817450I0J343750D01*
G01*
X128288000Y-82704950D01*
G75*
G02*
X128631750Y-82361200I343750J0D01*
G01*
X129319250Y-82361200D01*
G75*
G02*
X129663000Y-82704950I0J-343750D01*
G01*
G37*
G36*
G01*
X124048932Y-82704950D02*
X124048932Y-83817450D01*
G75*
G02*
X123705182Y-84161200I-343750J0D01*
G01*
X123017682Y-84161200D01*
G75*
G02*
X122673932Y-83817450I0J343750D01*
G01*
X122673932Y-82704950D01*
G75*
G02*
X123017682Y-82361200I343750J0D01*
G01*
X123705182Y-82361200D01*
G75*
G02*
X124048932Y-82704950I0J-343750D01*
G01*
G37*
G36*
G01*
X122173932Y-82704950D02*
X122173932Y-83817450D01*
G75*
G02*
X121830182Y-84161200I-343750J0D01*
G01*
X121142682Y-84161200D01*
G75*
G02*
X120798932Y-83817450I0J343750D01*
G01*
X120798932Y-82704950D01*
G75*
G02*
X121142682Y-82361200I343750J0D01*
G01*
X121830182Y-82361200D01*
G75*
G02*
X122173932Y-82704950I0J-343750D01*
G01*
G37*
G36*
G01*
X116559866Y-82704950D02*
X116559866Y-83817450D01*
G75*
G02*
X116216116Y-84161200I-343750J0D01*
G01*
X115528616Y-84161200D01*
G75*
G02*
X115184866Y-83817450I0J343750D01*
G01*
X115184866Y-82704950D01*
G75*
G02*
X115528616Y-82361200I343750J0D01*
G01*
X116216116Y-82361200D01*
G75*
G02*
X116559866Y-82704950I0J-343750D01*
G01*
G37*
G36*
G01*
X118434866Y-82704950D02*
X118434866Y-83817450D01*
G75*
G02*
X118091116Y-84161200I-343750J0D01*
G01*
X117403616Y-84161200D01*
G75*
G02*
X117059866Y-83817450I0J343750D01*
G01*
X117059866Y-82704950D01*
G75*
G02*
X117403616Y-82361200I343750J0D01*
G01*
X118091116Y-82361200D01*
G75*
G02*
X118434866Y-82704950I0J-343750D01*
G01*
G37*
G36*
G01*
X112820800Y-82704950D02*
X112820800Y-83817450D01*
G75*
G02*
X112477050Y-84161200I-343750J0D01*
G01*
X111789550Y-84161200D01*
G75*
G02*
X111445800Y-83817450I0J343750D01*
G01*
X111445800Y-82704950D01*
G75*
G02*
X111789550Y-82361200I343750J0D01*
G01*
X112477050Y-82361200D01*
G75*
G02*
X112820800Y-82704950I0J-343750D01*
G01*
G37*
G36*
G01*
X110945800Y-82704950D02*
X110945800Y-83817450D01*
G75*
G02*
X110602050Y-84161200I-343750J0D01*
G01*
X109914550Y-84161200D01*
G75*
G02*
X109570800Y-83817450I0J343750D01*
G01*
X109570800Y-82704950D01*
G75*
G02*
X109914550Y-82361200I343750J0D01*
G01*
X110602050Y-82361200D01*
G75*
G02*
X110945800Y-82704950I0J-343750D01*
G01*
G37*
G36*
G01*
X168349450Y-91388332D02*
X167236950Y-91388332D01*
G75*
G02*
X166893200Y-91044582I0J343750D01*
G01*
X166893200Y-90357082D01*
G75*
G02*
X167236950Y-90013332I343750J0D01*
G01*
X168349450Y-90013332D01*
G75*
G02*
X168693200Y-90357082I0J-343750D01*
G01*
X168693200Y-91044582D01*
G75*
G02*
X168349450Y-91388332I-343750J0D01*
G01*
G37*
G36*
G01*
X168349450Y-93263332D02*
X167236950Y-93263332D01*
G75*
G02*
X166893200Y-92919582I0J343750D01*
G01*
X166893200Y-92232082D01*
G75*
G02*
X167236950Y-91888332I343750J0D01*
G01*
X168349450Y-91888332D01*
G75*
G02*
X168693200Y-92232082I0J-343750D01*
G01*
X168693200Y-92919582D01*
G75*
G02*
X168349450Y-93263332I-343750J0D01*
G01*
G37*
G36*
G01*
X162070000Y-116556250D02*
X162070000Y-115443750D01*
G75*
G02*
X162413750Y-115100000I343750J0D01*
G01*
X163101250Y-115100000D01*
G75*
G02*
X163445000Y-115443750I0J-343750D01*
G01*
X163445000Y-116556250D01*
G75*
G02*
X163101250Y-116900000I-343750J0D01*
G01*
X162413750Y-116900000D01*
G75*
G02*
X162070000Y-116556250I0J343750D01*
G01*
G37*
G36*
G01*
X163945000Y-116556250D02*
X163945000Y-115443750D01*
G75*
G02*
X164288750Y-115100000I343750J0D01*
G01*
X164976250Y-115100000D01*
G75*
G02*
X165320000Y-115443750I0J-343750D01*
G01*
X165320000Y-116556250D01*
G75*
G02*
X164976250Y-116900000I-343750J0D01*
G01*
X164288750Y-116900000D01*
G75*
G02*
X163945000Y-116556250I0J343750D01*
G01*
G37*
G36*
G01*
X186470100Y-94964582D02*
X186470100Y-93852082D01*
G75*
G02*
X186813850Y-93508332I343750J0D01*
G01*
X187501350Y-93508332D01*
G75*
G02*
X187845100Y-93852082I0J-343750D01*
G01*
X187845100Y-94964582D01*
G75*
G02*
X187501350Y-95308332I-343750J0D01*
G01*
X186813850Y-95308332D01*
G75*
G02*
X186470100Y-94964582I0J343750D01*
G01*
G37*
G36*
G01*
X184595100Y-94964582D02*
X184595100Y-93852082D01*
G75*
G02*
X184938850Y-93508332I343750J0D01*
G01*
X185626350Y-93508332D01*
G75*
G02*
X185970100Y-93852082I0J-343750D01*
G01*
X185970100Y-94964582D01*
G75*
G02*
X185626350Y-95308332I-343750J0D01*
G01*
X184938850Y-95308332D01*
G75*
G02*
X184595100Y-94964582I0J343750D01*
G01*
G37*
G36*
G01*
X181383950Y-91033332D02*
X182496450Y-91033332D01*
G75*
G02*
X182840200Y-91377082I0J-343750D01*
G01*
X182840200Y-92064582D01*
G75*
G02*
X182496450Y-92408332I-343750J0D01*
G01*
X181383950Y-92408332D01*
G75*
G02*
X181040200Y-92064582I0J343750D01*
G01*
X181040200Y-91377082D01*
G75*
G02*
X181383950Y-91033332I343750J0D01*
G01*
G37*
G36*
G01*
X181383950Y-92908332D02*
X182496450Y-92908332D01*
G75*
G02*
X182840200Y-93252082I0J-343750D01*
G01*
X182840200Y-93939582D01*
G75*
G02*
X182496450Y-94283332I-343750J0D01*
G01*
X181383950Y-94283332D01*
G75*
G02*
X181040200Y-93939582I0J343750D01*
G01*
X181040200Y-93252082D01*
G75*
G02*
X181383950Y-92908332I343750J0D01*
G01*
G37*
G36*
G01*
X163200000Y-104018750D02*
X163200000Y-105131250D01*
G75*
G02*
X162856250Y-105475000I-343750J0D01*
G01*
X162168750Y-105475000D01*
G75*
G02*
X161825000Y-105131250I0J343750D01*
G01*
X161825000Y-104018750D01*
G75*
G02*
X162168750Y-103675000I343750J0D01*
G01*
X162856250Y-103675000D01*
G75*
G02*
X163200000Y-104018750I0J-343750D01*
G01*
G37*
G36*
G01*
X165075000Y-104018750D02*
X165075000Y-105131250D01*
G75*
G02*
X164731250Y-105475000I-343750J0D01*
G01*
X164043750Y-105475000D01*
G75*
G02*
X163700000Y-105131250I0J343750D01*
G01*
X163700000Y-104018750D01*
G75*
G02*
X164043750Y-103675000I343750J0D01*
G01*
X164731250Y-103675000D01*
G75*
G02*
X165075000Y-104018750I0J-343750D01*
G01*
G37*
G36*
G01*
X152945000Y-111556250D02*
X152945000Y-110443750D01*
G75*
G02*
X153288750Y-110100000I343750J0D01*
G01*
X153976250Y-110100000D01*
G75*
G02*
X154320000Y-110443750I0J-343750D01*
G01*
X154320000Y-111556250D01*
G75*
G02*
X153976250Y-111900000I-343750J0D01*
G01*
X153288750Y-111900000D01*
G75*
G02*
X152945000Y-111556250I0J343750D01*
G01*
G37*
G36*
G01*
X151070000Y-111556250D02*
X151070000Y-110443750D01*
G75*
G02*
X151413750Y-110100000I343750J0D01*
G01*
X152101250Y-110100000D01*
G75*
G02*
X152445000Y-110443750I0J-343750D01*
G01*
X152445000Y-111556250D01*
G75*
G02*
X152101250Y-111900000I-343750J0D01*
G01*
X151413750Y-111900000D01*
G75*
G02*
X151070000Y-111556250I0J343750D01*
G01*
G37*
M02*
