G04 #@! TF.GenerationSoftware,KiCad,Pcbnew,(5.1.6)-1*
G04 #@! TF.CreationDate,2020-07-08T23:31:11-03:00*
G04 #@! TF.ProjectId,Projeto GTA,50726f6a-6574-46f2-9047-54412e6b6963,1.0*
G04 #@! TF.SameCoordinates,Original*
G04 #@! TF.FileFunction,Paste,Top*
G04 #@! TF.FilePolarity,Positive*
%FSLAX46Y46*%
G04 Gerber Fmt 4.6, Leading zero omitted, Abs format (unit mm)*
G04 Created by KiCad (PCBNEW (5.1.6)-1) date 2020-07-08 23:31:11*
%MOMM*%
%LPD*%
G01*
G04 APERTURE LIST*
%ADD10R,1.550000X0.600000*%
%ADD11R,3.800000X2.000000*%
%ADD12R,1.500000X2.000000*%
%ADD13R,0.300000X1.500000*%
%ADD14R,1.500000X0.300000*%
%ADD15R,1.350000X1.350000*%
%ADD16R,1.950000X0.600000*%
%ADD17R,0.900000X1.200000*%
G04 APERTURE END LIST*
D10*
X172843200Y-81336666D03*
X172843200Y-82606666D03*
X172843200Y-83876666D03*
X172843200Y-85146666D03*
X178243200Y-85146666D03*
X178243200Y-83876666D03*
X178243200Y-82606666D03*
X178243200Y-81336666D03*
G36*
G01*
X164875000Y-100618750D02*
X164875000Y-101531250D01*
G75*
G02*
X164631250Y-101775000I-243750J0D01*
G01*
X164143750Y-101775000D01*
G75*
G02*
X163900000Y-101531250I0J243750D01*
G01*
X163900000Y-100618750D01*
G75*
G02*
X164143750Y-100375000I243750J0D01*
G01*
X164631250Y-100375000D01*
G75*
G02*
X164875000Y-100618750I0J-243750D01*
G01*
G37*
G36*
G01*
X163000000Y-100618750D02*
X163000000Y-101531250D01*
G75*
G02*
X162756250Y-101775000I-243750J0D01*
G01*
X162268750Y-101775000D01*
G75*
G02*
X162025000Y-101531250I0J243750D01*
G01*
X162025000Y-100618750D01*
G75*
G02*
X162268750Y-100375000I243750J0D01*
G01*
X162756250Y-100375000D01*
G75*
G02*
X163000000Y-100618750I0J-243750D01*
G01*
G37*
G36*
G01*
X127243000Y-78515300D02*
X127243000Y-79765300D01*
G75*
G02*
X126993000Y-80015300I-250000J0D01*
G01*
X126243000Y-80015300D01*
G75*
G02*
X125993000Y-79765300I0J250000D01*
G01*
X125993000Y-78515300D01*
G75*
G02*
X126243000Y-78265300I250000J0D01*
G01*
X126993000Y-78265300D01*
G75*
G02*
X127243000Y-78515300I0J-250000D01*
G01*
G37*
G36*
G01*
X130043000Y-78515300D02*
X130043000Y-79765300D01*
G75*
G02*
X129793000Y-80015300I-250000J0D01*
G01*
X129043000Y-80015300D01*
G75*
G02*
X128793000Y-79765300I0J250000D01*
G01*
X128793000Y-78515300D01*
G75*
G02*
X129043000Y-78265300I250000J0D01*
G01*
X129793000Y-78265300D01*
G75*
G02*
X130043000Y-78515300I0J-250000D01*
G01*
G37*
G36*
G01*
X113200800Y-78515300D02*
X113200800Y-79765300D01*
G75*
G02*
X112950800Y-80015300I-250000J0D01*
G01*
X112200800Y-80015300D01*
G75*
G02*
X111950800Y-79765300I0J250000D01*
G01*
X111950800Y-78515300D01*
G75*
G02*
X112200800Y-78265300I250000J0D01*
G01*
X112950800Y-78265300D01*
G75*
G02*
X113200800Y-78515300I0J-250000D01*
G01*
G37*
G36*
G01*
X110400800Y-78515300D02*
X110400800Y-79765300D01*
G75*
G02*
X110150800Y-80015300I-250000J0D01*
G01*
X109400800Y-80015300D01*
G75*
G02*
X109150800Y-79765300I0J250000D01*
G01*
X109150800Y-78515300D01*
G75*
G02*
X109400800Y-78265300I250000J0D01*
G01*
X110150800Y-78265300D01*
G75*
G02*
X110400800Y-78515300I0J-250000D01*
G01*
G37*
G36*
G01*
X116014866Y-78515300D02*
X116014866Y-79765300D01*
G75*
G02*
X115764866Y-80015300I-250000J0D01*
G01*
X115014866Y-80015300D01*
G75*
G02*
X114764866Y-79765300I0J250000D01*
G01*
X114764866Y-78515300D01*
G75*
G02*
X115014866Y-78265300I250000J0D01*
G01*
X115764866Y-78265300D01*
G75*
G02*
X116014866Y-78515300I0J-250000D01*
G01*
G37*
G36*
G01*
X118814866Y-78515300D02*
X118814866Y-79765300D01*
G75*
G02*
X118564866Y-80015300I-250000J0D01*
G01*
X117814866Y-80015300D01*
G75*
G02*
X117564866Y-79765300I0J250000D01*
G01*
X117564866Y-78515300D01*
G75*
G02*
X117814866Y-78265300I250000J0D01*
G01*
X118564866Y-78265300D01*
G75*
G02*
X118814866Y-78515300I0J-250000D01*
G01*
G37*
G36*
G01*
X124428932Y-78515300D02*
X124428932Y-79765300D01*
G75*
G02*
X124178932Y-80015300I-250000J0D01*
G01*
X123428932Y-80015300D01*
G75*
G02*
X123178932Y-79765300I0J250000D01*
G01*
X123178932Y-78515300D01*
G75*
G02*
X123428932Y-78265300I250000J0D01*
G01*
X124178932Y-78265300D01*
G75*
G02*
X124428932Y-78515300I0J-250000D01*
G01*
G37*
G36*
G01*
X121628932Y-78515300D02*
X121628932Y-79765300D01*
G75*
G02*
X121378932Y-80015300I-250000J0D01*
G01*
X120628932Y-80015300D01*
G75*
G02*
X120378932Y-79765300I0J250000D01*
G01*
X120378932Y-78515300D01*
G75*
G02*
X120628932Y-78265300I250000J0D01*
G01*
X121378932Y-78265300D01*
G75*
G02*
X121628932Y-78515300I0J-250000D01*
G01*
G37*
X172843200Y-90753332D03*
X172843200Y-92023332D03*
X172843200Y-93293332D03*
X172843200Y-94563332D03*
X178243200Y-94563332D03*
X178243200Y-93293332D03*
X178243200Y-92023332D03*
X178243200Y-90753332D03*
D11*
X127157192Y-114147200D03*
D12*
X127157192Y-120447200D03*
X129457192Y-120447200D03*
X124857192Y-120447200D03*
G36*
G01*
X100668200Y-48005050D02*
X100668200Y-47092550D01*
G75*
G02*
X100911950Y-46848800I243750J0D01*
G01*
X101399450Y-46848800D01*
G75*
G02*
X101643200Y-47092550I0J-243750D01*
G01*
X101643200Y-48005050D01*
G75*
G02*
X101399450Y-48248800I-243750J0D01*
G01*
X100911950Y-48248800D01*
G75*
G02*
X100668200Y-48005050I0J243750D01*
G01*
G37*
G36*
G01*
X98793200Y-48005050D02*
X98793200Y-47092550D01*
G75*
G02*
X99036950Y-46848800I243750J0D01*
G01*
X99524450Y-46848800D01*
G75*
G02*
X99768200Y-47092550I0J-243750D01*
G01*
X99768200Y-48005050D01*
G75*
G02*
X99524450Y-48248800I-243750J0D01*
G01*
X99036950Y-48248800D01*
G75*
G02*
X98793200Y-48005050I0J243750D01*
G01*
G37*
G36*
G01*
X110436521Y-88465600D02*
X111349021Y-88465600D01*
G75*
G02*
X111592771Y-88709350I0J-243750D01*
G01*
X111592771Y-89196850D01*
G75*
G02*
X111349021Y-89440600I-243750J0D01*
G01*
X110436521Y-89440600D01*
G75*
G02*
X110192771Y-89196850I0J243750D01*
G01*
X110192771Y-88709350D01*
G75*
G02*
X110436521Y-88465600I243750J0D01*
G01*
G37*
G36*
G01*
X110436521Y-86590600D02*
X111349021Y-86590600D01*
G75*
G02*
X111592771Y-86834350I0J-243750D01*
G01*
X111592771Y-87321850D01*
G75*
G02*
X111349021Y-87565600I-243750J0D01*
G01*
X110436521Y-87565600D01*
G75*
G02*
X110192771Y-87321850I0J243750D01*
G01*
X110192771Y-86834350D01*
G75*
G02*
X110436521Y-86590600I243750J0D01*
G01*
G37*
G36*
G01*
X164025000Y-79595000D02*
X164025000Y-80845000D01*
G75*
G02*
X163775000Y-81095000I-250000J0D01*
G01*
X163025000Y-81095000D01*
G75*
G02*
X162775000Y-80845000I0J250000D01*
G01*
X162775000Y-79595000D01*
G75*
G02*
X163025000Y-79345000I250000J0D01*
G01*
X163775000Y-79345000D01*
G75*
G02*
X164025000Y-79595000I0J-250000D01*
G01*
G37*
G36*
G01*
X161225000Y-79595000D02*
X161225000Y-80845000D01*
G75*
G02*
X160975000Y-81095000I-250000J0D01*
G01*
X160225000Y-81095000D01*
G75*
G02*
X159975000Y-80845000I0J250000D01*
G01*
X159975000Y-79595000D01*
G75*
G02*
X160225000Y-79345000I250000J0D01*
G01*
X160975000Y-79345000D01*
G75*
G02*
X161225000Y-79595000I0J-250000D01*
G01*
G37*
G36*
G01*
X153946800Y-80491650D02*
X153946800Y-79579150D01*
G75*
G02*
X154190550Y-79335400I243750J0D01*
G01*
X154678050Y-79335400D01*
G75*
G02*
X154921800Y-79579150I0J-243750D01*
G01*
X154921800Y-80491650D01*
G75*
G02*
X154678050Y-80735400I-243750J0D01*
G01*
X154190550Y-80735400D01*
G75*
G02*
X153946800Y-80491650I0J243750D01*
G01*
G37*
G36*
G01*
X155821800Y-80491650D02*
X155821800Y-79579150D01*
G75*
G02*
X156065550Y-79335400I243750J0D01*
G01*
X156553050Y-79335400D01*
G75*
G02*
X156796800Y-79579150I0J-243750D01*
G01*
X156796800Y-80491650D01*
G75*
G02*
X156553050Y-80735400I-243750J0D01*
G01*
X156065550Y-80735400D01*
G75*
G02*
X155821800Y-80491650I0J243750D01*
G01*
G37*
D13*
X147750000Y-82800000D03*
X147250000Y-82800000D03*
X146750000Y-82800000D03*
X146250000Y-82800000D03*
X145750000Y-82800000D03*
X145250000Y-82800000D03*
X144750000Y-82800000D03*
X144250000Y-82800000D03*
X143750000Y-82800000D03*
X143250000Y-82800000D03*
X142750000Y-82800000D03*
X142250000Y-82800000D03*
D14*
X140800000Y-84250000D03*
X140800000Y-84750000D03*
X140800000Y-85250000D03*
X140800000Y-85750000D03*
X140800000Y-86250000D03*
X140800000Y-86750000D03*
X140800000Y-87250000D03*
X140800000Y-87750000D03*
X140800000Y-88250000D03*
X140800000Y-88750000D03*
X140800000Y-89250000D03*
X140800000Y-89750000D03*
D13*
X142250000Y-91200000D03*
X142750000Y-91200000D03*
X143250000Y-91200000D03*
X143750000Y-91200000D03*
X144250000Y-91200000D03*
X144750000Y-91200000D03*
X145250000Y-91200000D03*
X145750000Y-91200000D03*
X146250000Y-91200000D03*
X146750000Y-91200000D03*
X147250000Y-91200000D03*
X147750000Y-91200000D03*
D14*
X149200000Y-89750000D03*
X149200000Y-89250000D03*
X149200000Y-88750000D03*
X149200000Y-88250000D03*
X149200000Y-87750000D03*
X149200000Y-87250000D03*
X149200000Y-86750000D03*
X149200000Y-86250000D03*
X149200000Y-85750000D03*
X149200000Y-85250000D03*
X149200000Y-84750000D03*
X149200000Y-84250000D03*
D15*
X144125000Y-87875000D03*
X145875000Y-87875000D03*
X144125000Y-86125000D03*
X145875000Y-86125000D03*
D16*
X124791200Y-98800600D03*
X124791200Y-97530600D03*
X124791200Y-96260600D03*
X124791200Y-94990600D03*
X124791200Y-93720600D03*
X124791200Y-92450600D03*
X124791200Y-91180600D03*
X124791200Y-89910600D03*
X124791200Y-88640600D03*
X124791200Y-87370600D03*
X115391200Y-87370600D03*
X115391200Y-88640600D03*
X115391200Y-89910600D03*
X115391200Y-91180600D03*
X115391200Y-92450600D03*
X115391200Y-93720600D03*
X115391200Y-94990600D03*
X115391200Y-96260600D03*
X115391200Y-97530600D03*
X115391200Y-98800600D03*
D17*
X109963220Y-111968280D03*
X106663220Y-111968280D03*
D12*
X118389386Y-113410600D03*
X113789386Y-113410600D03*
X116089386Y-113410600D03*
D11*
X116089386Y-119710600D03*
G36*
G01*
X110436521Y-96730599D02*
X111349021Y-96730599D01*
G75*
G02*
X111592771Y-96974349I0J-243750D01*
G01*
X111592771Y-97461849D01*
G75*
G02*
X111349021Y-97705599I-243750J0D01*
G01*
X110436521Y-97705599D01*
G75*
G02*
X110192771Y-97461849I0J243750D01*
G01*
X110192771Y-96974349D01*
G75*
G02*
X110436521Y-96730599I243750J0D01*
G01*
G37*
G36*
G01*
X110436521Y-98605601D02*
X111349021Y-98605601D01*
G75*
G02*
X111592771Y-98849351I0J-243750D01*
G01*
X111592771Y-99336851D01*
G75*
G02*
X111349021Y-99580601I-243750J0D01*
G01*
X110436521Y-99580601D01*
G75*
G02*
X110192771Y-99336851I0J243750D01*
G01*
X110192771Y-98849351D01*
G75*
G02*
X110436521Y-98605601I243750J0D01*
G01*
G37*
G36*
G01*
X147652025Y-78513150D02*
X147006790Y-79158385D01*
G75*
G02*
X146662076Y-79158385I-172357J172357D01*
G01*
X146317361Y-78813670D01*
G75*
G02*
X146317361Y-78468956I172357J172357D01*
G01*
X146962596Y-77823721D01*
G75*
G02*
X147307310Y-77823721I172357J-172357D01*
G01*
X147652025Y-78168436D01*
G75*
G02*
X147652025Y-78513150I-172357J-172357D01*
G01*
G37*
G36*
G01*
X146326199Y-77187324D02*
X145680964Y-77832559D01*
G75*
G02*
X145336250Y-77832559I-172357J172357D01*
G01*
X144991535Y-77487844D01*
G75*
G02*
X144991535Y-77143130I172357J172357D01*
G01*
X145636770Y-76497895D01*
G75*
G02*
X145981484Y-76497895I172357J-172357D01*
G01*
X146326199Y-76842610D01*
G75*
G02*
X146326199Y-77187324I-172357J-172357D01*
G01*
G37*
G36*
G01*
X155913770Y-85915680D02*
X156826270Y-85915680D01*
G75*
G02*
X157070020Y-86159430I0J-243750D01*
G01*
X157070020Y-86646930D01*
G75*
G02*
X156826270Y-86890680I-243750J0D01*
G01*
X155913770Y-86890680D01*
G75*
G02*
X155670020Y-86646930I0J243750D01*
G01*
X155670020Y-86159430D01*
G75*
G02*
X155913770Y-85915680I243750J0D01*
G01*
G37*
G36*
G01*
X155913770Y-84040680D02*
X156826270Y-84040680D01*
G75*
G02*
X157070020Y-84284430I0J-243750D01*
G01*
X157070020Y-84771930D01*
G75*
G02*
X156826270Y-85015680I-243750J0D01*
G01*
X155913770Y-85015680D01*
G75*
G02*
X155670020Y-84771930I0J243750D01*
G01*
X155670020Y-84284430D01*
G75*
G02*
X155913770Y-84040680I243750J0D01*
G01*
G37*
G36*
G01*
X148176040Y-95870710D02*
X148176040Y-96783210D01*
G75*
G02*
X147932290Y-97026960I-243750J0D01*
G01*
X147444790Y-97026960D01*
G75*
G02*
X147201040Y-96783210I0J243750D01*
G01*
X147201040Y-95870710D01*
G75*
G02*
X147444790Y-95626960I243750J0D01*
G01*
X147932290Y-95626960D01*
G75*
G02*
X148176040Y-95870710I0J-243750D01*
G01*
G37*
G36*
G01*
X146301040Y-95870710D02*
X146301040Y-96783210D01*
G75*
G02*
X146057290Y-97026960I-243750J0D01*
G01*
X145569790Y-97026960D01*
G75*
G02*
X145326040Y-96783210I0J243750D01*
G01*
X145326040Y-95870710D01*
G75*
G02*
X145569790Y-95626960I243750J0D01*
G01*
X146057290Y-95626960D01*
G75*
G02*
X146301040Y-95870710I0J-243750D01*
G01*
G37*
G36*
G01*
X137145180Y-85818030D02*
X137145180Y-84905530D01*
G75*
G02*
X137388930Y-84661780I243750J0D01*
G01*
X137876430Y-84661780D01*
G75*
G02*
X138120180Y-84905530I0J-243750D01*
G01*
X138120180Y-85818030D01*
G75*
G02*
X137876430Y-86061780I-243750J0D01*
G01*
X137388930Y-86061780D01*
G75*
G02*
X137145180Y-85818030I0J243750D01*
G01*
G37*
G36*
G01*
X135270180Y-85818030D02*
X135270180Y-84905530D01*
G75*
G02*
X135513930Y-84661780I243750J0D01*
G01*
X136001430Y-84661780D01*
G75*
G02*
X136245180Y-84905530I0J-243750D01*
G01*
X136245180Y-85818030D01*
G75*
G02*
X136001430Y-86061780I-243750J0D01*
G01*
X135513930Y-86061780D01*
G75*
G02*
X135270180Y-85818030I0J243750D01*
G01*
G37*
G36*
G01*
X174118200Y-97900810D02*
X174118200Y-96988310D01*
G75*
G02*
X174361950Y-96744560I243750J0D01*
G01*
X174849450Y-96744560D01*
G75*
G02*
X175093200Y-96988310I0J-243750D01*
G01*
X175093200Y-97900810D01*
G75*
G02*
X174849450Y-98144560I-243750J0D01*
G01*
X174361950Y-98144560D01*
G75*
G02*
X174118200Y-97900810I0J243750D01*
G01*
G37*
G36*
G01*
X175993200Y-97900810D02*
X175993200Y-96988310D01*
G75*
G02*
X176236950Y-96744560I243750J0D01*
G01*
X176724450Y-96744560D01*
G75*
G02*
X176968200Y-96988310I0J-243750D01*
G01*
X176968200Y-97900810D01*
G75*
G02*
X176724450Y-98144560I-243750J0D01*
G01*
X176236950Y-98144560D01*
G75*
G02*
X175993200Y-97900810I0J243750D01*
G01*
G37*
G36*
G01*
X183013200Y-97900810D02*
X183013200Y-96988310D01*
G75*
G02*
X183256950Y-96744560I243750J0D01*
G01*
X183744450Y-96744560D01*
G75*
G02*
X183988200Y-96988310I0J-243750D01*
G01*
X183988200Y-97900810D01*
G75*
G02*
X183744450Y-98144560I-243750J0D01*
G01*
X183256950Y-98144560D01*
G75*
G02*
X183013200Y-97900810I0J243750D01*
G01*
G37*
G36*
G01*
X181138200Y-97900810D02*
X181138200Y-96988310D01*
G75*
G02*
X181381950Y-96744560I243750J0D01*
G01*
X181869450Y-96744560D01*
G75*
G02*
X182113200Y-96988310I0J-243750D01*
G01*
X182113200Y-97900810D01*
G75*
G02*
X181869450Y-98144560I-243750J0D01*
G01*
X181381950Y-98144560D01*
G75*
G02*
X181138200Y-97900810I0J243750D01*
G01*
G37*
G36*
G01*
X133653850Y-98880600D02*
X132741350Y-98880600D01*
G75*
G02*
X132497600Y-98636850I0J243750D01*
G01*
X132497600Y-98149350D01*
G75*
G02*
X132741350Y-97905600I243750J0D01*
G01*
X133653850Y-97905600D01*
G75*
G02*
X133897600Y-98149350I0J-243750D01*
G01*
X133897600Y-98636850D01*
G75*
G02*
X133653850Y-98880600I-243750J0D01*
G01*
G37*
G36*
G01*
X133653850Y-97005600D02*
X132741350Y-97005600D01*
G75*
G02*
X132497600Y-96761850I0J243750D01*
G01*
X132497600Y-96274350D01*
G75*
G02*
X132741350Y-96030600I243750J0D01*
G01*
X133653850Y-96030600D01*
G75*
G02*
X133897600Y-96274350I0J-243750D01*
G01*
X133897600Y-96761850D01*
G75*
G02*
X133653850Y-97005600I-243750J0D01*
G01*
G37*
G36*
G01*
X111349021Y-92635600D02*
X110436521Y-92635600D01*
G75*
G02*
X110192771Y-92391850I0J243750D01*
G01*
X110192771Y-91904350D01*
G75*
G02*
X110436521Y-91660600I243750J0D01*
G01*
X111349021Y-91660600D01*
G75*
G02*
X111592771Y-91904350I0J-243750D01*
G01*
X111592771Y-92391850D01*
G75*
G02*
X111349021Y-92635600I-243750J0D01*
G01*
G37*
G36*
G01*
X111349021Y-94510600D02*
X110436521Y-94510600D01*
G75*
G02*
X110192771Y-94266850I0J243750D01*
G01*
X110192771Y-93779350D01*
G75*
G02*
X110436521Y-93535600I243750J0D01*
G01*
X111349021Y-93535600D01*
G75*
G02*
X111592771Y-93779350I0J-243750D01*
G01*
X111592771Y-94266850D01*
G75*
G02*
X111349021Y-94510600I-243750J0D01*
G01*
G37*
G36*
G01*
X133653850Y-90140600D02*
X132741350Y-90140600D01*
G75*
G02*
X132497600Y-89896850I0J243750D01*
G01*
X132497600Y-89409350D01*
G75*
G02*
X132741350Y-89165600I243750J0D01*
G01*
X133653850Y-89165600D01*
G75*
G02*
X133897600Y-89409350I0J-243750D01*
G01*
X133897600Y-89896850D01*
G75*
G02*
X133653850Y-90140600I-243750J0D01*
G01*
G37*
G36*
G01*
X133653850Y-88265600D02*
X132741350Y-88265600D01*
G75*
G02*
X132497600Y-88021850I0J243750D01*
G01*
X132497600Y-87534350D01*
G75*
G02*
X132741350Y-87290600I243750J0D01*
G01*
X133653850Y-87290600D01*
G75*
G02*
X133897600Y-87534350I0J-243750D01*
G01*
X133897600Y-88021850D01*
G75*
G02*
X133653850Y-88265600I-243750J0D01*
G01*
G37*
G36*
G01*
X119450000Y-125810850D02*
X119450000Y-124898350D01*
G75*
G02*
X119693750Y-124654600I243750J0D01*
G01*
X120181250Y-124654600D01*
G75*
G02*
X120425000Y-124898350I0J-243750D01*
G01*
X120425000Y-125810850D01*
G75*
G02*
X120181250Y-126054600I-243750J0D01*
G01*
X119693750Y-126054600D01*
G75*
G02*
X119450000Y-125810850I0J243750D01*
G01*
G37*
G36*
G01*
X117575000Y-125810850D02*
X117575000Y-124898350D01*
G75*
G02*
X117818750Y-124654600I243750J0D01*
G01*
X118306250Y-124654600D01*
G75*
G02*
X118550000Y-124898350I0J-243750D01*
G01*
X118550000Y-125810850D01*
G75*
G02*
X118306250Y-126054600I-243750J0D01*
G01*
X117818750Y-126054600D01*
G75*
G02*
X117575000Y-125810850I0J243750D01*
G01*
G37*
G36*
G01*
X114703800Y-110870050D02*
X114703800Y-109957550D01*
G75*
G02*
X114947550Y-109713800I243750J0D01*
G01*
X115435050Y-109713800D01*
G75*
G02*
X115678800Y-109957550I0J-243750D01*
G01*
X115678800Y-110870050D01*
G75*
G02*
X115435050Y-111113800I-243750J0D01*
G01*
X114947550Y-111113800D01*
G75*
G02*
X114703800Y-110870050I0J243750D01*
G01*
G37*
G36*
G01*
X116578800Y-110870050D02*
X116578800Y-109957550D01*
G75*
G02*
X116822550Y-109713800I243750J0D01*
G01*
X117310050Y-109713800D01*
G75*
G02*
X117553800Y-109957550I0J-243750D01*
G01*
X117553800Y-110870050D01*
G75*
G02*
X117310050Y-111113800I-243750J0D01*
G01*
X116822550Y-111113800D01*
G75*
G02*
X116578800Y-110870050I0J243750D01*
G01*
G37*
G36*
G01*
X112350000Y-124829599D02*
X112350000Y-125679601D01*
G75*
G02*
X112100001Y-125929600I-249999J0D01*
G01*
X111199999Y-125929600D01*
G75*
G02*
X110950000Y-125679601I0J249999D01*
G01*
X110950000Y-124829599D01*
G75*
G02*
X111199999Y-124579600I249999J0D01*
G01*
X112100001Y-124579600D01*
G75*
G02*
X112350000Y-124829599I0J-249999D01*
G01*
G37*
G36*
G01*
X115050000Y-124829599D02*
X115050000Y-125679601D01*
G75*
G02*
X114800001Y-125929600I-249999J0D01*
G01*
X113899999Y-125929600D01*
G75*
G02*
X113650000Y-125679601I0J249999D01*
G01*
X113650000Y-124829599D01*
G75*
G02*
X113899999Y-124579600I249999J0D01*
G01*
X114800001Y-124579600D01*
G75*
G02*
X115050000Y-124829599I0J-249999D01*
G01*
G37*
G36*
G01*
X129507200Y-109912599D02*
X129507200Y-110762601D01*
G75*
G02*
X129257201Y-111012600I-249999J0D01*
G01*
X128357199Y-111012600D01*
G75*
G02*
X128107200Y-110762601I0J249999D01*
G01*
X128107200Y-109912599D01*
G75*
G02*
X128357199Y-109662600I249999J0D01*
G01*
X129257201Y-109662600D01*
G75*
G02*
X129507200Y-109912599I0J-249999D01*
G01*
G37*
G36*
G01*
X126807200Y-109912599D02*
X126807200Y-110762601D01*
G75*
G02*
X126557201Y-111012600I-249999J0D01*
G01*
X125657199Y-111012600D01*
G75*
G02*
X125407200Y-110762601I0J249999D01*
G01*
X125407200Y-109912599D01*
G75*
G02*
X125657199Y-109662600I249999J0D01*
G01*
X126557201Y-109662600D01*
G75*
G02*
X126807200Y-109912599I0J-249999D01*
G01*
G37*
D10*
X154602200Y-100920000D03*
X154602200Y-102190000D03*
X154602200Y-103460000D03*
X154602200Y-104730000D03*
X160002200Y-104730000D03*
X160002200Y-103460000D03*
X160002200Y-102190000D03*
X160002200Y-100920000D03*
G36*
G01*
X147755000Y-111456250D02*
X147755000Y-110543750D01*
G75*
G02*
X147998750Y-110300000I243750J0D01*
G01*
X148486250Y-110300000D01*
G75*
G02*
X148730000Y-110543750I0J-243750D01*
G01*
X148730000Y-111456250D01*
G75*
G02*
X148486250Y-111700000I-243750J0D01*
G01*
X147998750Y-111700000D01*
G75*
G02*
X147755000Y-111456250I0J243750D01*
G01*
G37*
G36*
G01*
X145880000Y-111456250D02*
X145880000Y-110543750D01*
G75*
G02*
X146123750Y-110300000I243750J0D01*
G01*
X146611250Y-110300000D01*
G75*
G02*
X146855000Y-110543750I0J-243750D01*
G01*
X146855000Y-111456250D01*
G75*
G02*
X146611250Y-111700000I-243750J0D01*
G01*
X146123750Y-111700000D01*
G75*
G02*
X145880000Y-111456250I0J243750D01*
G01*
G37*
G36*
G01*
X137449999Y-115543750D02*
X137449999Y-116456250D01*
G75*
G02*
X137206249Y-116700000I-243750J0D01*
G01*
X136718749Y-116700000D01*
G75*
G02*
X136474999Y-116456250I0J243750D01*
G01*
X136474999Y-115543750D01*
G75*
G02*
X136718749Y-115300000I243750J0D01*
G01*
X137206249Y-115300000D01*
G75*
G02*
X137449999Y-115543750I0J-243750D01*
G01*
G37*
G36*
G01*
X135574999Y-115543750D02*
X135574999Y-116456250D01*
G75*
G02*
X135331249Y-116700000I-243750J0D01*
G01*
X134843749Y-116700000D01*
G75*
G02*
X134599999Y-116456250I0J243750D01*
G01*
X134599999Y-115543750D01*
G75*
G02*
X134843749Y-115300000I243750J0D01*
G01*
X135331249Y-115300000D01*
G75*
G02*
X135574999Y-115543750I0J-243750D01*
G01*
G37*
G36*
G01*
X142145000Y-130810850D02*
X142145000Y-129898350D01*
G75*
G02*
X142388750Y-129654600I243750J0D01*
G01*
X142876250Y-129654600D01*
G75*
G02*
X143120000Y-129898350I0J-243750D01*
G01*
X143120000Y-130810850D01*
G75*
G02*
X142876250Y-131054600I-243750J0D01*
G01*
X142388750Y-131054600D01*
G75*
G02*
X142145000Y-130810850I0J243750D01*
G01*
G37*
G36*
G01*
X140270000Y-130810850D02*
X140270000Y-129898350D01*
G75*
G02*
X140513750Y-129654600I243750J0D01*
G01*
X141001250Y-129654600D01*
G75*
G02*
X141245000Y-129898350I0J-243750D01*
G01*
X141245000Y-130810850D01*
G75*
G02*
X141001250Y-131054600I-243750J0D01*
G01*
X140513750Y-131054600D01*
G75*
G02*
X140270000Y-130810850I0J243750D01*
G01*
G37*
G36*
G01*
X184425000Y-129898350D02*
X184425000Y-130810850D01*
G75*
G02*
X184181250Y-131054600I-243750J0D01*
G01*
X183693750Y-131054600D01*
G75*
G02*
X183450000Y-130810850I0J243750D01*
G01*
X183450000Y-129898350D01*
G75*
G02*
X183693750Y-129654600I243750J0D01*
G01*
X184181250Y-129654600D01*
G75*
G02*
X184425000Y-129898350I0J-243750D01*
G01*
G37*
G36*
G01*
X182550000Y-129898350D02*
X182550000Y-130810850D01*
G75*
G02*
X182306250Y-131054600I-243750J0D01*
G01*
X181818750Y-131054600D01*
G75*
G02*
X181575000Y-130810850I0J243750D01*
G01*
X181575000Y-129898350D01*
G75*
G02*
X181818750Y-129654600I243750J0D01*
G01*
X182306250Y-129654600D01*
G75*
G02*
X182550000Y-129898350I0J-243750D01*
G01*
G37*
G36*
G01*
X183450000Y-125960850D02*
X183450000Y-125048350D01*
G75*
G02*
X183693750Y-124804600I243750J0D01*
G01*
X184181250Y-124804600D01*
G75*
G02*
X184425000Y-125048350I0J-243750D01*
G01*
X184425000Y-125960850D01*
G75*
G02*
X184181250Y-126204600I-243750J0D01*
G01*
X183693750Y-126204600D01*
G75*
G02*
X183450000Y-125960850I0J243750D01*
G01*
G37*
G36*
G01*
X181575000Y-125960850D02*
X181575000Y-125048350D01*
G75*
G02*
X181818750Y-124804600I243750J0D01*
G01*
X182306250Y-124804600D01*
G75*
G02*
X182550000Y-125048350I0J-243750D01*
G01*
X182550000Y-125960850D01*
G75*
G02*
X182306250Y-126204600I-243750J0D01*
G01*
X181818750Y-126204600D01*
G75*
G02*
X181575000Y-125960850I0J243750D01*
G01*
G37*
G36*
G01*
X159730000Y-115543750D02*
X159730000Y-116456250D01*
G75*
G02*
X159486250Y-116700000I-243750J0D01*
G01*
X158998750Y-116700000D01*
G75*
G02*
X158755000Y-116456250I0J243750D01*
G01*
X158755000Y-115543750D01*
G75*
G02*
X158998750Y-115300000I243750J0D01*
G01*
X159486250Y-115300000D01*
G75*
G02*
X159730000Y-115543750I0J-243750D01*
G01*
G37*
G36*
G01*
X157855000Y-115543750D02*
X157855000Y-116456250D01*
G75*
G02*
X157611250Y-116700000I-243750J0D01*
G01*
X157123750Y-116700000D01*
G75*
G02*
X156880000Y-116456250I0J243750D01*
G01*
X156880000Y-115543750D01*
G75*
G02*
X157123750Y-115300000I243750J0D01*
G01*
X157611250Y-115300000D01*
G75*
G02*
X157855000Y-115543750I0J-243750D01*
G01*
G37*
G36*
G01*
X141245000Y-115543750D02*
X141245000Y-116456250D01*
G75*
G02*
X141001250Y-116700000I-243750J0D01*
G01*
X140513750Y-116700000D01*
G75*
G02*
X140270000Y-116456250I0J243750D01*
G01*
X140270000Y-115543750D01*
G75*
G02*
X140513750Y-115300000I243750J0D01*
G01*
X141001250Y-115300000D01*
G75*
G02*
X141245000Y-115543750I0J-243750D01*
G01*
G37*
G36*
G01*
X143120000Y-115543750D02*
X143120000Y-116456250D01*
G75*
G02*
X142876250Y-116700000I-243750J0D01*
G01*
X142388750Y-116700000D01*
G75*
G02*
X142145000Y-116456250I0J243750D01*
G01*
X142145000Y-115543750D01*
G75*
G02*
X142388750Y-115300000I243750J0D01*
G01*
X142876250Y-115300000D01*
G75*
G02*
X143120000Y-115543750I0J-243750D01*
G01*
G37*
G36*
G01*
X168249450Y-97771666D02*
X167336950Y-97771666D01*
G75*
G02*
X167093200Y-97527916I0J243750D01*
G01*
X167093200Y-97040416D01*
G75*
G02*
X167336950Y-96796666I243750J0D01*
G01*
X168249450Y-96796666D01*
G75*
G02*
X168493200Y-97040416I0J-243750D01*
G01*
X168493200Y-97527916D01*
G75*
G02*
X168249450Y-97771666I-243750J0D01*
G01*
G37*
G36*
G01*
X168249450Y-95896666D02*
X167336950Y-95896666D01*
G75*
G02*
X167093200Y-95652916I0J243750D01*
G01*
X167093200Y-95165416D01*
G75*
G02*
X167336950Y-94921666I243750J0D01*
G01*
X168249450Y-94921666D01*
G75*
G02*
X168493200Y-95165416I0J-243750D01*
G01*
X168493200Y-95652916D01*
G75*
G02*
X168249450Y-95896666I-243750J0D01*
G01*
G37*
G36*
G01*
X157585000Y-129898350D02*
X157585000Y-130810850D01*
G75*
G02*
X157341250Y-131054600I-243750J0D01*
G01*
X156853750Y-131054600D01*
G75*
G02*
X156610000Y-130810850I0J243750D01*
G01*
X156610000Y-129898350D01*
G75*
G02*
X156853750Y-129654600I243750J0D01*
G01*
X157341250Y-129654600D01*
G75*
G02*
X157585000Y-129898350I0J-243750D01*
G01*
G37*
G36*
G01*
X159460000Y-129898350D02*
X159460000Y-130810850D01*
G75*
G02*
X159216250Y-131054600I-243750J0D01*
G01*
X158728750Y-131054600D01*
G75*
G02*
X158485000Y-130810850I0J243750D01*
G01*
X158485000Y-129898350D01*
G75*
G02*
X158728750Y-129654600I243750J0D01*
G01*
X159216250Y-129654600D01*
G75*
G02*
X159460000Y-129898350I0J-243750D01*
G01*
G37*
G36*
G01*
X127588000Y-82804950D02*
X127588000Y-83717450D01*
G75*
G02*
X127344250Y-83961200I-243750J0D01*
G01*
X126856750Y-83961200D01*
G75*
G02*
X126613000Y-83717450I0J243750D01*
G01*
X126613000Y-82804950D01*
G75*
G02*
X126856750Y-82561200I243750J0D01*
G01*
X127344250Y-82561200D01*
G75*
G02*
X127588000Y-82804950I0J-243750D01*
G01*
G37*
G36*
G01*
X129463000Y-82804950D02*
X129463000Y-83717450D01*
G75*
G02*
X129219250Y-83961200I-243750J0D01*
G01*
X128731750Y-83961200D01*
G75*
G02*
X128488000Y-83717450I0J243750D01*
G01*
X128488000Y-82804950D01*
G75*
G02*
X128731750Y-82561200I243750J0D01*
G01*
X129219250Y-82561200D01*
G75*
G02*
X129463000Y-82804950I0J-243750D01*
G01*
G37*
G36*
G01*
X123848932Y-82804950D02*
X123848932Y-83717450D01*
G75*
G02*
X123605182Y-83961200I-243750J0D01*
G01*
X123117682Y-83961200D01*
G75*
G02*
X122873932Y-83717450I0J243750D01*
G01*
X122873932Y-82804950D01*
G75*
G02*
X123117682Y-82561200I243750J0D01*
G01*
X123605182Y-82561200D01*
G75*
G02*
X123848932Y-82804950I0J-243750D01*
G01*
G37*
G36*
G01*
X121973932Y-82804950D02*
X121973932Y-83717450D01*
G75*
G02*
X121730182Y-83961200I-243750J0D01*
G01*
X121242682Y-83961200D01*
G75*
G02*
X120998932Y-83717450I0J243750D01*
G01*
X120998932Y-82804950D01*
G75*
G02*
X121242682Y-82561200I243750J0D01*
G01*
X121730182Y-82561200D01*
G75*
G02*
X121973932Y-82804950I0J-243750D01*
G01*
G37*
G36*
G01*
X116359866Y-82804950D02*
X116359866Y-83717450D01*
G75*
G02*
X116116116Y-83961200I-243750J0D01*
G01*
X115628616Y-83961200D01*
G75*
G02*
X115384866Y-83717450I0J243750D01*
G01*
X115384866Y-82804950D01*
G75*
G02*
X115628616Y-82561200I243750J0D01*
G01*
X116116116Y-82561200D01*
G75*
G02*
X116359866Y-82804950I0J-243750D01*
G01*
G37*
G36*
G01*
X118234866Y-82804950D02*
X118234866Y-83717450D01*
G75*
G02*
X117991116Y-83961200I-243750J0D01*
G01*
X117503616Y-83961200D01*
G75*
G02*
X117259866Y-83717450I0J243750D01*
G01*
X117259866Y-82804950D01*
G75*
G02*
X117503616Y-82561200I243750J0D01*
G01*
X117991116Y-82561200D01*
G75*
G02*
X118234866Y-82804950I0J-243750D01*
G01*
G37*
G36*
G01*
X112620800Y-82804950D02*
X112620800Y-83717450D01*
G75*
G02*
X112377050Y-83961200I-243750J0D01*
G01*
X111889550Y-83961200D01*
G75*
G02*
X111645800Y-83717450I0J243750D01*
G01*
X111645800Y-82804950D01*
G75*
G02*
X111889550Y-82561200I243750J0D01*
G01*
X112377050Y-82561200D01*
G75*
G02*
X112620800Y-82804950I0J-243750D01*
G01*
G37*
G36*
G01*
X110745800Y-82804950D02*
X110745800Y-83717450D01*
G75*
G02*
X110502050Y-83961200I-243750J0D01*
G01*
X110014550Y-83961200D01*
G75*
G02*
X109770800Y-83717450I0J243750D01*
G01*
X109770800Y-82804950D01*
G75*
G02*
X110014550Y-82561200I243750J0D01*
G01*
X110502050Y-82561200D01*
G75*
G02*
X110745800Y-82804950I0J-243750D01*
G01*
G37*
G36*
G01*
X168249450Y-91188332D02*
X167336950Y-91188332D01*
G75*
G02*
X167093200Y-90944582I0J243750D01*
G01*
X167093200Y-90457082D01*
G75*
G02*
X167336950Y-90213332I243750J0D01*
G01*
X168249450Y-90213332D01*
G75*
G02*
X168493200Y-90457082I0J-243750D01*
G01*
X168493200Y-90944582D01*
G75*
G02*
X168249450Y-91188332I-243750J0D01*
G01*
G37*
G36*
G01*
X168249450Y-93063332D02*
X167336950Y-93063332D01*
G75*
G02*
X167093200Y-92819582I0J243750D01*
G01*
X167093200Y-92332082D01*
G75*
G02*
X167336950Y-92088332I243750J0D01*
G01*
X168249450Y-92088332D01*
G75*
G02*
X168493200Y-92332082I0J-243750D01*
G01*
X168493200Y-92819582D01*
G75*
G02*
X168249450Y-93063332I-243750J0D01*
G01*
G37*
G36*
G01*
X162270000Y-116456250D02*
X162270000Y-115543750D01*
G75*
G02*
X162513750Y-115300000I243750J0D01*
G01*
X163001250Y-115300000D01*
G75*
G02*
X163245000Y-115543750I0J-243750D01*
G01*
X163245000Y-116456250D01*
G75*
G02*
X163001250Y-116700000I-243750J0D01*
G01*
X162513750Y-116700000D01*
G75*
G02*
X162270000Y-116456250I0J243750D01*
G01*
G37*
G36*
G01*
X164145000Y-116456250D02*
X164145000Y-115543750D01*
G75*
G02*
X164388750Y-115300000I243750J0D01*
G01*
X164876250Y-115300000D01*
G75*
G02*
X165120000Y-115543750I0J-243750D01*
G01*
X165120000Y-116456250D01*
G75*
G02*
X164876250Y-116700000I-243750J0D01*
G01*
X164388750Y-116700000D01*
G75*
G02*
X164145000Y-116456250I0J243750D01*
G01*
G37*
G36*
G01*
X186670100Y-94864582D02*
X186670100Y-93952082D01*
G75*
G02*
X186913850Y-93708332I243750J0D01*
G01*
X187401350Y-93708332D01*
G75*
G02*
X187645100Y-93952082I0J-243750D01*
G01*
X187645100Y-94864582D01*
G75*
G02*
X187401350Y-95108332I-243750J0D01*
G01*
X186913850Y-95108332D01*
G75*
G02*
X186670100Y-94864582I0J243750D01*
G01*
G37*
G36*
G01*
X184795100Y-94864582D02*
X184795100Y-93952082D01*
G75*
G02*
X185038850Y-93708332I243750J0D01*
G01*
X185526350Y-93708332D01*
G75*
G02*
X185770100Y-93952082I0J-243750D01*
G01*
X185770100Y-94864582D01*
G75*
G02*
X185526350Y-95108332I-243750J0D01*
G01*
X185038850Y-95108332D01*
G75*
G02*
X184795100Y-94864582I0J243750D01*
G01*
G37*
G36*
G01*
X181483950Y-91233332D02*
X182396450Y-91233332D01*
G75*
G02*
X182640200Y-91477082I0J-243750D01*
G01*
X182640200Y-91964582D01*
G75*
G02*
X182396450Y-92208332I-243750J0D01*
G01*
X181483950Y-92208332D01*
G75*
G02*
X181240200Y-91964582I0J243750D01*
G01*
X181240200Y-91477082D01*
G75*
G02*
X181483950Y-91233332I243750J0D01*
G01*
G37*
G36*
G01*
X181483950Y-93108332D02*
X182396450Y-93108332D01*
G75*
G02*
X182640200Y-93352082I0J-243750D01*
G01*
X182640200Y-93839582D01*
G75*
G02*
X182396450Y-94083332I-243750J0D01*
G01*
X181483950Y-94083332D01*
G75*
G02*
X181240200Y-93839582I0J243750D01*
G01*
X181240200Y-93352082D01*
G75*
G02*
X181483950Y-93108332I243750J0D01*
G01*
G37*
G36*
G01*
X163000000Y-104118750D02*
X163000000Y-105031250D01*
G75*
G02*
X162756250Y-105275000I-243750J0D01*
G01*
X162268750Y-105275000D01*
G75*
G02*
X162025000Y-105031250I0J243750D01*
G01*
X162025000Y-104118750D01*
G75*
G02*
X162268750Y-103875000I243750J0D01*
G01*
X162756250Y-103875000D01*
G75*
G02*
X163000000Y-104118750I0J-243750D01*
G01*
G37*
G36*
G01*
X164875000Y-104118750D02*
X164875000Y-105031250D01*
G75*
G02*
X164631250Y-105275000I-243750J0D01*
G01*
X164143750Y-105275000D01*
G75*
G02*
X163900000Y-105031250I0J243750D01*
G01*
X163900000Y-104118750D01*
G75*
G02*
X164143750Y-103875000I243750J0D01*
G01*
X164631250Y-103875000D01*
G75*
G02*
X164875000Y-104118750I0J-243750D01*
G01*
G37*
G36*
G01*
X153145000Y-111456250D02*
X153145000Y-110543750D01*
G75*
G02*
X153388750Y-110300000I243750J0D01*
G01*
X153876250Y-110300000D01*
G75*
G02*
X154120000Y-110543750I0J-243750D01*
G01*
X154120000Y-111456250D01*
G75*
G02*
X153876250Y-111700000I-243750J0D01*
G01*
X153388750Y-111700000D01*
G75*
G02*
X153145000Y-111456250I0J243750D01*
G01*
G37*
G36*
G01*
X151270000Y-111456250D02*
X151270000Y-110543750D01*
G75*
G02*
X151513750Y-110300000I243750J0D01*
G01*
X152001250Y-110300000D01*
G75*
G02*
X152245000Y-110543750I0J-243750D01*
G01*
X152245000Y-111456250D01*
G75*
G02*
X152001250Y-111700000I-243750J0D01*
G01*
X151513750Y-111700000D01*
G75*
G02*
X151270000Y-111456250I0J243750D01*
G01*
G37*
M02*
